<svg xmlns="http://www.w3.org/2000/svg" viewBox="0 0 16 16"><path d="M9.5 8c0 .8-.7 1.5-1.5 1.5S6.5 8.8 6.5 8 7.2 6.5 8 6.5s1.5.7 1.5 1.5zM8 11.5c-.8 0-1.5.7-1.5 1.5s.7 1.5 1.5 1.5 1.5-.7 1.5-1.5-.7-1.5-1.5-1.5zm0-10c-.8 0-1.5.7-1.5 1.5S7.2 4.5 8 4.5 9.5 3.8 9.5 3 8.8 1.5 8 1.5zm5 10c-.8 0-1.5.7-1.5 1.5s.7 1.5 1.5 1.5 1.5-.7 1.5-1.5-.7-1.5-1.5-1.5zm0-7c.8 0 1.5-.7 1.5-1.5s-.7-1.5-1.5-1.5-1.5.7-1.5 1.5.7 1.5 1.5 1.5zm0 2c-.8 0-1.5.7-1.5 1.5s.7 1.5 1.5 1.5 1.5-.7 1.5-1.5-.7-1.5-1.5-1.5zm-10 5c-.8 0-1.5.7-1.5 1.5s.7 1.5 1.5 1.5 1.5-.7 1.5-1.5-.7-1.5-1.5-1.5zm0-5c-.8 0-1.5.7-1.5 1.5S2.2 9.5 3 9.5 4.5 8.8 4.5 8 3.8 6.5 3 6.5zm0-5c-.8 0-1.5.7-1.5 1.5S2.2 4.5 3 4.5 4.5 3.8 4.5 3 3.8 1.5 3 1.5z"/></svg>