<svg xmlns="http://www.w3.org/2000/svg" width="16" height="16" viewBox="0 0 16 16">
  <path fill-rule="evenodd" d="M1.646 2.146a.5.5 0 0 1 .708 0l11 11a.5.5 0 0 1-.708.708l-11-11a.5.5 0 0 1 0-.708Z" clip-rule="evenodd"/>
  <path d="M7.604 3.09a.746.746 0 0 0-.798.056l-.021.016-.891.73a.25.25 0 0 0-.019.37L7.573 5.96A.25.25 0 0 0 8 5.783V3.768a.766.766 0 0 0-.396-.679Zm.25 7.388L3.022 5.647a.5.5 0 0 0-.354-.147H1.75a.75.75 0 0 0-.75.75v3.5a.75.75 0 0 0 .75.75h2.18l2.875 2.353a.747.747 0 0 0 1.093-.23.766.766 0 0 0 .102-.39V10.83a.5.5 0 0 0-.146-.353ZM11 8c0-.767-.182-1.496-.555-2.227a.5.5 0 1 0-.89.455 3.825 3.825 0 0 1 .435 2.026.25.25 0 0 0 .073.195l.449.45a.25.25 0 0 0 .423-.136C10.978 8.511 11 8.256 11 8Zm2 0c0-1.6-.409-2.622-1.068-3.752a.5.5 0 0 0-.864.504C11.658 5.764 12 6.62 12 8c0 .745-.103 1.34-.293 1.895a.25.25 0 0 0 .06.258l.39.39a.251.251 0 0 0 .41-.086C12.844 9.743 13 8.977 13 8Z"/>
  <path d="M15 8c0-2.32-.63-3.785-1.578-5.27a.5.5 0 1 0-.844.54c.855 1.336 1.423 2.652 1.423 4.73 0 1.443-.264 2.508-.701 3.454a.25.25 0 0 0 .05.281l.372.373a.25.25 0 0 0 .404-.068C14.738 10.778 15 9.531 15 8Z"/>
</svg>