<svg width="16" height="16" viewBox="0 0 16 16" xmlns="http://www.w3.org/2000/svg" xmlns:xlink="http://www.w3.org/1999/xlink"><defs><path d="M7.988 3.69l.035.014c.349.159.592.51.592.919v.304c.398.081.77.238 1.098.455l.215-.215a1.003 1.003 0 011.009-.252l.092.034.035.094a1.01 1.01 0 01-.168.913l-.084.095-.215.215c.217.328.374.7.455 1.099h.305c.413 0 .762.243.919.592l.012.03-.013.036a1.009 1.009 0 01-.809.586l-.11.006h-.304c-.081.398-.238.77-.455 1.098l.215.215c.276.276.359.665.253 1.009l-.035.092-.094.035a1.01 1.01 0 01-.913-.168l-.095-.084-.215-.215c-.328.217-.7.374-1.098.455v.305c0 .413-.243.762-.593.919l-.031.012-.034-.013a1.009 1.009 0 01-.586-.809l-.006-.11v-.304a3.115 3.115 0 01-1.099-.455l-.215.215a1.003 1.003 0 01-1.009.253l-.092-.035-.035-.094a1.01 1.01 0 01.168-.913l.084-.095.215-.215a3.115 3.115 0 01-.455-1.098h-.304c-.414 0-.763-.243-.92-.593l-.012-.031.013-.034c.144-.318.448-.547.809-.586l.11-.006h.304c.081-.4.238-.771.455-1.099l-.215-.215a1.003 1.003 0 01-.252-1.009l.034-.092.094-.035a1.01 1.01 0 01.913.168l.095.084.215.215c.328-.217.7-.374 1.099-.455v-.304c0-.414.243-.763.592-.92l.03-.012zm.002 2.58a1.719 1.719 0 100 3.438 1.719 1.719 0 000-3.437z" id="a"/></defs><g fill-rule="evenodd"><path d="M4.138 14.43a7.5 7.5 0 017.516-12.98l.21.122.001-.002c.734.44 1.376.994 1.908 1.635L14.99 1.99v3.5h-3.5l1.217-1.218a5.99 5.99 0 00-1.613-1.416l-.003.002a6 6 0 00-6.37 10.167l.19.12.001-.004c.95.571 2.016.861 3.1.858l.004 1.5a7.468 7.468 0 01-3.876-1.072l-.002.003zm8.458-2.57l1.15.963a7.477 7.477 0 01-3.628 2.37l-.423-1.438a5.977 5.977 0 002.901-1.896zm2.806-5.086a7.47 7.47 0 01-.558 4.299l-1.368-.616a5.97 5.97 0 00.446-3.437l1.48-.246z" fill-rule="nonzero"/><use xlink:href="#a"/></g></svg>
