<?xml version="1.0" encoding="utf-8"?>
<!-- Generator: Adobe Illustrator 22.1.0, SVG Export Plug-In . SVG Version: 6.00 Build 0)  -->
<svg version="1.1" id="Layer_1" xmlns="http://www.w3.org/2000/svg" xmlns:xlink="http://www.w3.org/1999/xlink" x="0px" y="0px"
	 viewBox="0 0 16 16" style="enable-background:new 0 0 16 16;" xml:space="preserve">
<style type="text/css">
	.st0{fill-opacity:0.3;}
</style>
<path class="st0" d="M10,1H2C1.4,1,1,1.4,1,1.8v9.7c0,0.4,0.5,0.7,0.8,0.4l2-2.7C3.9,9.1,4,9,4.1,9H10c0.6,0,1-0.4,1-0.8V1.8
	C11,1.4,10.6,1,10,1z M6,7.4c-0.3,0-0.6-0.3-0.6-0.6S5.7,6.2,6,6.2s0.6,0.3,0.6,0.6S6.3,7.4,6,7.4z M6.8,4.9
	C6.4,5.1,6.3,5.3,6.3,5.6v0H5.5l0,0c0-0.5,0.1-0.8,0.6-1c0.4-0.2,0.5-0.4,0.5-0.7c0-0.3-0.2-0.5-0.6-0.5c-0.4,0-0.6,0.2-0.6,0.6H4.5
	c0-0.8,0.6-1.3,1.5-1.3c0.9,0,1.5,0.5,1.5,1.2C7.5,4.3,7.3,4.6,6.8,4.9z"/>
<path d="M14.2,6H7.8C7.4,6,7,6.4,7,6.9v5.2C7,12.6,7.4,13,7.8,13h4.9c0.2,0,0.3,0.1,0.4,0.2l1,1.6c0.3,0.4,0.9,0.2,0.9-0.3V6.9
	C15,6.4,14.6,6,14.2,6z M10.4,11.1L9,9.7l0.6-0.6l0.9,0.9l2-2L13,8.5L10.4,11.1z"/>
</svg>
