<svg xmlns="http://www.w3.org/2000/svg" width="24" height="24" viewBox="0 0 24 24">
    <defs>
        <linearGradient id="a" gradientUnits="userSpaceOnUse" x1="9.85" y1="22.527" x2="9.85" y2=".349" gradientTransform="matrix(1 0 0 -1 0 24)">
            <stop offset="0" stop-color="#fff" stop-opacity=".6"/>
            <stop offset="1" stop-color="#fff" stop-opacity=".4"/>
        </linearGradient>
        <linearGradient id="b" gradientUnits="userSpaceOnUse" x1="14.67" y1="26.63" x2="14.67" y2="-10.865" gradientTransform="matrix(1 0 0 -1 0 24)">
            <stop offset="0" stop-color="#fff"/>
            <stop offset="1" stop-color="#fff" stop-opacity=".8"/>
        </linearGradient>
    </defs>
    <path d="M7.5 19.6c-.6 0-1.2-.5-1.2-1.1v-5.2c0-.6.5-1.1 1.2-1.1h11.2V8.7L11 1H2.1C1.5 1 1 1.5 1 2.1v19.8c0 .6.5 1.1 1.1 1.1h15.5c.6 0 1.1-.5 1.1-1.1v-2.3H7.5z" fill="url(#a)"/>
    <path d="M12.3 14.8l.5 1.6h-1.1l.6-1.6zM23 13.3v5.2c0 .6-.5 1.1-1.1 1.1H7.5c-.6 0-1.2-.5-1.2-1.1v-5.2c0-.6.5-1.1 1.2-1.1h14.4c.6-.1 1.1.4 1.1 1.1zm-13.6 3l1.4-2.4h-.7l-.9 1.6-.9-1.6h-.9l1.3 2.4v1.5h.7v-1.5zm4.6 1.4l-1.3-3.8h-.8l-1.3 3.8h.7l.2-.7H13l.2.7h.8zm4.4-3.8h-.9l-1 2.7-1-2.7h-.9v3.8h.7V15l1 2.7h.5l1-2.6v2.7h.7v-3.9zm3.5 3.2h-1.8V14h-.7v3.8h2.5v-.7zM11 1v6.6c0 .6.5 1.1 1.1 1.1h6.6L11 1z" fill="url(#b)"/>
</svg>
