<svg width="24" height="24" viewBox="0 0 24 24" xmlns="http://www.w3.org/2000/svg"><defs><linearGradient x1="50%" y1="0%" x2="50%" y2="100%" id="a"><stop stop-color="#9779FF" offset="0%"/><stop stop-color="#7D58FF" offset="100%"/></linearGradient><linearGradient x1="50%" y1="0%" x2="50%" y2="100%" id="b"><stop stop-color="#9779FF" offset="0%"/><stop stop-color="#7D58FF" offset="100%"/></linearGradient></defs><g fill="none" fill-rule="evenodd"><path d="M8.8 20.533H5.867a.733.733 0 0 0 0 1.467H8.8a.733.733 0 1 0 0-1.467Zm.733-2.2h-4.4a.733.733 0 1 0 0 1.467h4.4a.733.733 0 0 0 0-1.467Z" fill="url(#a)" opacity=".4" transform="translate(5 1)"/><path d="M12.532 2.14A7.29 7.29 0 0 0 7.333 0 7.316 7.316 0 0 0 0 7.333c0 2.137.82 4.136 2.246 5.484l.2.187c.825.772 1.954 1.83 1.954 2.763v1.1c0 .405.328.733.733.733h1.1a.367.367 0 0 0 .367-.367v-5.37a.367.367 0 0 0-.235-.343 5.992 5.992 0 0 1-1.2-.657.733.733 0 1 1 .852-1.192c.34.24.993.596 1.316.596.324 0 .977-.357 1.317-.596a.733.733 0 0 1 .85 1.192 5.992 5.992 0 0 1-1.198.656.367.367 0 0 0-.235.342v5.372c0 .203.164.367.366.367h1.1a.733.733 0 0 0 .734-.733v-1.1c0-.911 1.116-1.968 1.932-2.74l.225-.213c1.467-1.401 2.243-3.299 2.243-5.48a7.295 7.295 0 0 0-2.135-5.194Z" fill="url(#b)" transform="translate(5 1)"/></g></svg>