<svg width="16" height="16" viewBox="0 0 16 16" xmlns="http://www.w3.org/2000/svg" xmlns:xlink="http://www.w3.org/1999/xlink"><defs><path d="M10.476 5.527C7.47 2.52 3.897 1.499 2.698 2.698 1.5 3.898 2.52 7.47 5.527 10.476c3.006 3.007 6.579 4.028 7.778 2.829 1.199-1.2.178-4.772-2.829-7.778Zm3.89 8.838c-1.953 1.953-6.385.687-9.9-2.828C.95 8.022-.315 3.59 1.637 1.637c1.953-1.952 6.385-.686 9.9 2.829 3.515 3.515 4.781 7.947 2.828 9.9Z" id="a"/><path d="M14.365 1.637c1.953 1.953.687 6.385-2.828 9.9-3.515 3.515-7.947 4.781-9.9 2.828-1.952-1.952-.686-6.384 2.829-9.9 3.515-3.514 7.947-4.78 9.9-2.828Zm-8.838 3.89c-3.007 3.006-4.028 6.579-2.829 7.778 1.2 1.199 4.771.178 7.778-2.829 3.007-3.007 4.028-6.579 2.829-7.778-1.2-1.199-4.772-.178-7.778 2.829ZM8 6a2 2 0 1 1 0 4 2 2 0 0 1 0-4Z" id="b"/></defs><g fill="none" fill-rule="evenodd"><path d="M0 0h16v16H0z"/><use fill-opacity=".4" fill="#FFF" fill-rule="nonzero" xlink:href="#a"/><use fill="#FFF" fill-rule="nonzero" xlink:href="#b"/></g></svg>