<svg xmlns="http://www.w3.org/2000/svg" viewBox="0 0 24 24">
    <defs>
    <linearGradient id="a" gradientUnits="userSpaceOnUse" x1="12" y1="34.755" x2="12" y2="9.791">
        <stop offset="0" stop-color="#fff"/>
        <stop offset="1" stop-color="#fff" stop-opacity=".8"/>
    </linearGradient>
    <linearGradient id="b" gradientUnits="userSpaceOnUse" x1="11.573" y1="-13.417" x2="12.346" y2="22.544">
        <stop offset="0" stop-color="#fff" stop-opacity=".4"/>
        <stop offset="1" stop-color="#fff" stop-opacity=".6"/>
    </linearGradient>
    <linearGradient id="c" gradientUnits="userSpaceOnUse" x1="11.888" y1="1.161" x2="12.197" y2="15.524">
        <stop offset="0" stop-color="#fff"/>
        <stop offset="1" stop-color="#fff" stop-opacity=".8"/>
    </linearGradient>
    <linearGradient id="d" gradientUnits="userSpaceOnUse" x1="11.888" y1="7.661" x2="12.197" y2="22.024">
        <stop offset="0" stop-color="#fff"/>
        <stop offset="1" stop-color="#fff" stop-opacity=".8"/>
    </linearGradient>
    <linearGradient id="e" gradientUnits="userSpaceOnUse" x1="6.549" y1="4.461" x2="6.858" y2="18.824">
        <stop offset="0" stop-color="#fff"/>
        <stop offset="1" stop-color="#fff" stop-opacity=".8"/>
    </linearGradient>
    <linearGradient id="f" gradientUnits="userSpaceOnUse" x1="17.346" y1="4.461" x2="17.655" y2="18.824">
        <stop offset="0" stop-color="#fff"/>
        <stop offset="1" stop-color="#fff" stop-opacity=".8"/>
    </linearGradient>
    </defs>
    <g>
    <path d="M21.6 15.2l-2.8-1.7-5.9 3.5c-.5.3-1.1.4-1.7.1l-5.9-3.6-3 1.9c-.3.2-.5.7-.3 1 .1.1.1.2.3.3l8.8 5.3c.6.3 1.2.2 1.8-.1l8.8-5.3c.3-.2.5-.7.3-1s-.3-.4-.4-.4z" fill="url(#a)"/>
    <path d="M12.9 5.2c-.6-.4-1.3-.4-1.9 0l-8.6 5.3c-.3.2-.5.7-.3 1 .1.1.1.2.3.3l8.8 5.3c.6.3 1.2.2 1.8-.1l8.8-5.3c.3-.2.5-.7.3-1-.1-.1-.1-.2-.3-.3l-8.9-5.2z" fill="url(#b)"/>
    <path d="M11.6 6.8c.2.1.5.1.7 0l3.5-2.1c.2-.1.2-.4 0-.5s-3.5-2.1-3.5-2.1c-.2-.1-.5-.1-.8 0 0 0-3.3 2-3.4 2.1-.1.1-.2.4 0 .5.3.2 3.5 2.1 3.5 2.1z" fill="url(#c)"/>
    <path d="M11.6 13.3c.2.1.5.1.7 0l3.5-2.1c.2-.1.2-.4 0-.5s-3.5-2.1-3.5-2.1c-.2-.1-.5-.1-.8 0 0 0-3.3 2-3.4 2.1-.1.1-.2.4 0 .5.3.2 3.5 2.1 3.5 2.1z" fill="url(#d)"/>
    <path d="M6.3 10.1c.2.1.5.1.7 0L10.5 8c.2-.1.2-.4 0-.5C10.3 7.4 7 5.4 7 5.4c-.2-.1-.5-.1-.8 0 0 0-3.3 2-3.4 2.1-.2.1-.2.4 0 .5.2.2 3.5 2.1 3.5 2.1z" fill="url(#e)"/>
    <path d="M17.1 10.1c.2.1.5.1.7 0L21.3 8c.2-.1.2-.4 0-.5-.2-.1-3.5-2.1-3.5-2.1-.2-.1-.5-.1-.8 0 0 0-3.3 2-3.4 2.1-.1.1-.2.4 0 .5.2.2 3.5 2.1 3.5 2.1z" fill="url(#f)"/>
    </g>
</svg>
