<svg width="24" height="24" viewBox="0 0 24 24" xmlns="http://www.w3.org/2000/svg"><defs><linearGradient x1="50%" y1="0%" x2="50%" y2="100%" id="a"><stop stop-color="#FFF" offset="0%"/><stop stop-color="#FFF" stop-opacity=".8" offset="100%"/></linearGradient><linearGradient x1="50%" y1="0%" x2="50%" y2="100%" id="b"><stop stop-color="#FFF" offset="0%"/><stop stop-color="#FFF" stop-opacity=".8" offset="100%"/></linearGradient><linearGradient x1="50%" y1="100%" x2="50%" y2="0%" id="c"><stop stop-color="#FFF" stop-opacity=".4" offset="0%"/><stop stop-color="#FFF" stop-opacity=".6" offset="100%"/></linearGradient></defs><g fill="none" fill-rule="evenodd"><path d="M0 0h24v24H0z"/><path d="M5 18H0v-5h2v3h3v2zm8 0h5v-5h-2v3h-3v2zM5 0H0v5h2V2h3V0zm8 0h5v5h-2V2h-3V0z" fill="url(#a)" transform="translate(3 3)"/><path fill="url(#b)" d="M0 8v2h18V8z" transform="translate(3 3)"/><path d="M7 9c0-1.105.887-2 2-2h6c1.105 0 2 .888 2 2v2H7V9z" fill="url(#c)"/><path d="M7 15c0-1.105.887-2 2-2h6c1.105 0 2 .888 2 2v2H7v-2z" fill="url(#c)" transform="rotate(-180 12 15)"/></g></svg>
