<svg width="24" height="24" viewBox="0 0 24 24" fill="none" xmlns="http://www.w3.org/2000/svg">
<path fill-rule="evenodd" clip-rule="evenodd" d="M5 4C3.34315 4 2 5.34315 2 7V17C2 18.6569 3.34315 20 5 20H19C20.6569 20 22 18.6569 22 17V7C22 5.34315 20.6569 4 19 4H5ZM6 7C5.44772 7 5 7.44772 5 8V11C5 11.5523 5.44772 12 6 12H9C9.55228 12 10 11.5523 10 11V8C10 7.44772 9.55228 7 9 7H6Z" fill="url(#paint0_linear_1479_1293)"/>
<rect opacity="0.4" x="5" y="7" width="5" height="5" rx="1" fill="url(#paint1_linear_1479_1293)"/>
<defs>
<linearGradient id="paint0_linear_1479_1293" x1="12" y1="4" x2="12" y2="20" gradientUnits="userSpaceOnUse">
<stop stop-color="white"/>
<stop offset="1" stop-color="white" stop-opacity="0.8"/>
</linearGradient>
<linearGradient id="paint1_linear_1479_1293" x1="7.5" y1="7" x2="7.5" y2="12" gradientUnits="userSpaceOnUse">
<stop stop-color="white"/>
<stop offset="1" stop-color="white" stop-opacity="0.8"/>
</linearGradient>
</defs>
</svg>
