<svg width="24" height="24" viewBox="0 0 24 24" xmlns="http://www.w3.org/2000/svg"><defs><linearGradient x1="50%" y1="0%" x2="50%" y2="100%" id="a"><stop stop-color="#9779FF" offset="0%"/><stop stop-color="#7D58FF" offset="100%"/></linearGradient></defs><g fill="none" fill-rule="evenodd"><path d="M21 1.5v21H3v-21h18zM8.806 15l-2.322 2.322-.895-.895-.589.59L6.484 18.5l2.911-2.911L8.806 15zM19 16h-8v2h8v-2zM8.806 10l-2.322 2.322-.895-.895-.589.59L6.484 13.5l2.911-2.911L8.806 10zM19 11h-8v2h8v-2zM8.806 5L6.484 7.322l-.895-.895-.589.59L6.484 8.5l2.911-2.911L8.806 5zM19 6h-8v2h8V6z" fill="#7D58FF"/><path fill="url(#a)" opacity=".4" d="M11 6h8v2h-8zM11 11h8v2h-8zM11 16h8v2h-8z"/></g></svg>
