<svg width="100%" height="100%" viewBox="0 0 920 480" xmlns="http://www.w3.org/2000/svg" xmlns:xlink="http://www.w3.org/1999/xlink"><defs><linearGradient x1="108.141%" y1="41.784%" x2="8.269%" y2="57.313%" id="c"><stop stop-color="#B99BFF" offset="0%"/><stop stop-color="#4828BA" offset="100%"/></linearGradient><linearGradient x1="98.776%" y1="50.628%" x2="23.122%" y2="51.739%" id="e"><stop stop-color="#2D214A" offset="0%"/><stop stop-color="#362181" offset="100%"/></linearGradient><linearGradient x1="98.776%" y1="53.776%" x2="23.122%" y2="60.449%" id="g"><stop stop-color="#2D214A" offset="0%"/><stop stop-color="#362181" offset="100%"/></linearGradient><linearGradient x1="98.776%" y1="51.574%" x2="23.122%" y2="54.356%" id="h"><stop stop-color="#2D214A" offset="0%"/><stop stop-color="#362181" offset="100%"/></linearGradient><linearGradient x1="117.441%" y1="24.686%" x2="23.122%" y2="56.189%" id="i"><stop stop-color="#2D214A" offset="0%"/><stop stop-color="#4A319F" offset="100%"/></linearGradient><linearGradient x1="0%" y1="50%" x2="100%" y2="50%" id="j"><stop stop-color="#9982CF" offset="0%"/><stop stop-color="#6346B9" offset="100%"/></linearGradient><linearGradient x1="50%" y1="0%" x2="50%" y2="100%" id="G"><stop stop-color="#FFF" offset="0%"/><stop stop-color="#AF95E2" offset="100%"/></linearGradient><linearGradient x1="50%" y1="0%" x2="50%" y2="100%" id="H"><stop stop-color="#FFF" offset="0%"/><stop stop-color="#AF95E2" offset="100%"/></linearGradient><linearGradient x1="50%" y1="0%" x2="50%" y2="100%" id="I"><stop stop-color="#FFF" offset="0%"/><stop stop-color="#DACFF0" offset="100%"/></linearGradient><linearGradient x1="50%" y1="0%" x2="50%" y2="100%" id="J"><stop stop-color="#FFF" offset="0%"/><stop stop-color="#AF95E2" offset="100%"/></linearGradient><linearGradient x1="86.491%" y1="57.786%" x2="29.892%" y2="71.549%" id="K"><stop stop-color="#2D214A" offset="0%"/><stop stop-color="#362181" offset="100%"/></linearGradient><linearGradient x1="98.776%" y1="57.176%" x2="23.122%" y2="69.861%" id="L"><stop stop-color="#2D214A" offset="0%"/><stop stop-color="#362181" offset="100%"/></linearGradient><linearGradient x1="98.877%" y1="33.462%" x2="8.269%" y2="80.979%" id="M"><stop stop-color="#B99BFF" offset="0%"/><stop stop-color="#4828BA" offset="100%"/></linearGradient><linearGradient x1="25%" y1="74.988%" x2="87.4%" y2="11.264%" id="R"><stop stop-color="#AF98FF" offset="0%"/><stop stop-color="#7D58FF" offset="100%"/></linearGradient><linearGradient x1="25.2%" y1="77.497%" x2="54.3%" y2="39.965%" id="S"><stop stop-color="#DBD2FD" offset="0%"/><stop stop-color="#AF98FF" offset="100%"/></linearGradient><linearGradient x1="0%" y1="50%" x2="101.4%" y2="50%" id="T"><stop stop-color="#AF98FF" offset="0%"/><stop stop-color="#7D58FF" offset="100%"/></linearGradient><linearGradient x1="0%" y1="50%" x2="100%" y2="50%" id="U"><stop stop-color="#AF98FF" offset="0%"/><stop stop-color="#7D58FF" offset="100%"/></linearGradient><linearGradient x1="0%" y1="50%" x2="98.5%" y2="50%" id="V"><stop stop-color="#AF98FF" offset="0%"/><stop stop-color="#7D58FF" offset="100%"/></linearGradient><linearGradient x1="82.4%" y1="48.3%" x2="31.5%" y2="22.1%" id="W"><stop stop-color="#AF98FF" offset="0%"/><stop stop-color="#7D58FF" offset="100%"/></linearGradient><linearGradient x1="31.5%" y1="33.58%" x2="74%" y2="95.767%" id="X"><stop stop-color="#BEADFA" offset="0%"/><stop stop-color="#724BFD" offset="100%"/></linearGradient><linearGradient x1="59.1%" y1="106.2%" x2="87.6%" y2="24.2%" id="Y"><stop stop-color="#AF98FF" offset="0%"/><stop stop-color="#7D58FF" offset="100%"/></linearGradient><linearGradient x1="50%" y1="0%" x2="50%" y2="100%" id="Z"><stop stop-color="#AF98FF" offset="0%"/><stop stop-color="#7D58FF" offset="100%"/></linearGradient><linearGradient x1="50%" y1="0%" x2="50%" y2="100%" id="aa"><stop stop-color="#AF98FF" offset="0%"/><stop stop-color="#7D58FF" offset="100%"/></linearGradient><linearGradient x1="43.8%" y1="15.6%" x2="33.3%" y2="64.9%" id="ab"><stop stop-color="#AF98FF" offset="0%"/><stop stop-color="#7D58FF" offset="100%"/></linearGradient><linearGradient x1="55.7%" y1="32%" x2="13.1%" y2="50%" id="ac"><stop stop-color="#AF98FF" offset="0%"/><stop stop-color="#7D58FF" offset="100%"/></linearGradient><linearGradient x1="91.4%" y1="76.1%" x2="9.7%" y2="9.4%" id="ad"><stop stop-color="#AF98FF" offset="0%"/><stop stop-color="#7D58FF" offset="100%"/></linearGradient><linearGradient x1="18.3%" y1="87.792%" x2="85%" y2="15.453%" id="ae"><stop stop-color="#AF98FF" offset="0%"/><stop stop-color="#7D58FF" offset="100%"/></linearGradient><linearGradient x1="25.8%" y1="75.982%" x2="75.4%" y2="17.726%" id="af"><stop stop-color="#AF98FF" offset="0%"/><stop stop-color="#7D58FF" offset="100%"/></linearGradient><linearGradient x1="23.6%" y1="73.579%" x2="75.9%" y2="16.53%" id="ag"><stop stop-color="#AF98FF" offset="0%"/><stop stop-color="#7D58FF" offset="100%"/></linearGradient><linearGradient x1="0%" y1="50%" x2="100%" y2="50%" id="aq"><stop stop-color="#9982CF" offset="0%"/><stop stop-color="#6346B9" offset="100%"/></linearGradient><linearGradient x1="88.4%" y1="18.8%" x2="18.1%" y2="87.1%" id="as"><stop stop-color="#B7A2FF" offset="0%"/><stop stop-color="#A389FF" offset="24.1%"/><stop stop-color="#7D58FF" offset="100%"/></linearGradient><path d="m7 0 1.945 1.765 2.624-.102.356 2.603L14 5.875l-1.4 2.222.556 2.567-2.5.802L9.43 13.79 7 12.797l-2.431.993-1.224-2.324-2.5-.802.555-2.567L0 5.875l2.075-1.61.356-2.602 2.624.102L7 0Zm2.959 4.184-4.271 4.27L4.04 6.81 2.96 7.89l2.728 2.73 5.354-5.355L9.96 4.184Z" id="a"/><path d="M270.692.66c91.213 0 115.904 53.426 188.023 53.426 32.956 0 48.454-15.455 99.659-15.455 83.844 0 122.315 57.946 122.315 104.63 0 44.89-38.959 97.112-101.272 97.112-70.53 0-116.962-57.01-196.783-57.01-84.112 0-162.196 44.504-245.436 52.286C95.528 239.545 6.99 240.303.351 173.754-2.86 141.569 21.496 111.49 40.874 92.7 101.73 33.69 192.255.66 270.692.66Z" id="d"/><path d="M8 0a4 4 0 0 1 4 4v4a4 4 0 0 1-4 4H4a4 4 0 0 1-4-4V4a4 4 0 0 1 4-4h4Zm-.75.75h-2.5a4 4 0 0 0-4 4v2.5a4 4 0 0 0 4 4h2.5a4 4 0 0 0 4-4v-2.5a4 4 0 0 0-4-4Z" id="m"/><path id="o" d="m3.089 5.535-.928.928 2.714 2.714 4.964-4.964-.928-.928-4.036 4.036z"/><path d="M8 0a4 4 0 0 1 4 4v4a4 4 0 0 1-4 4H4a4 4 0 0 1-4-4V4a4 4 0 0 1 4-4h4Zm.25.75h-4.5a3 3 0 0 0-3 3v4.5a3 3 0 0 0 3 3h4.5a3 3 0 0 0 3-3v-4.5a3 3 0 0 0-3-3Z" id="s"/><path d="M8 0a4 4 0 0 1 4 4v4a4 4 0 0 1-4 4H4a4 4 0 0 1-4-4V4a4 4 0 0 1 4-4h4Zm-.75.75h-2.5a4 4 0 0 0-4 4v2.5a4 4 0 0 0 4 4h2.5a4 4 0 0 0 4-4v-2.5a4 4 0 0 0-4-4Z" id="w"/><path id="y" d="m3.089 5.535-.928.928 2.714 2.714 4.964-4.964-.928-.928-4.036 4.036z"/><path d="M8 0a4 4 0 0 1 4 4v4a4 4 0 0 1-4 4H4a4 4 0 0 1-4-4V4a4 4 0 0 1 4-4h4Zm.25.75h-4.5a3 3 0 0 0-3 3v4.5a3 3 0 0 0 3 3h4.5a3 3 0 0 0 3-3v-4.5a3 3 0 0 0-3-3Z" id="C"/><path d="M63.707 35.625a43.94 43.94 0 0 1-5.136 2.163 44.063 44.063 0 0 1-11.861 2.366 44.377 44.377 0 0 0 16.997-4.53ZM.047.06c.023.252.05.503.077.754l.042.377c.045.385.096.769.151 1.152H.312A43.82 43.82 0 0 1 .047.06Z" id="E"/><path id="N" d="M0 42.204h76.994V.1H0z"/><path d="M8 0a8 8 0 1 1 0 16A8 8 0 0 1 8 0Zm0 1a7 7 0 1 0 0 14A7 7 0 0 0 8 1Z" id="aj"/><path d="M4 0h44a4 4 0 0 1 4 4v28a4 4 0 0 1-4 4H4a4 4 0 0 1-4-4V4a4 4 0 0 1 4-4Z" id="an"/><path d="M13.057 1.563c.558 0 1.005.448 1.005 1.002v2.279a7.788 7.788 0 0 1 2.746 1.137L18.42 4.37a1.01 1.01 0 0 1 1.42.002l.788.787c.395.395.394 1.029.002 1.42L19.02 8.193a7.788 7.788 0 0 1 1.137 2.745h2.28c.545 0 1.002.45 1.002 1.006v1.114c0 .558-.45 1.005-1.003 1.005h-2.279a7.788 7.788 0 0 1-1.137 2.746l1.611 1.612a1.01 1.01 0 0 1-.002 1.42l-.787.788a1.003 1.003 0 0 1-1.42.002l-1.613-1.611a7.788 7.788 0 0 1-2.745 1.137v2.28c0 .545-.45 1.002-1.006 1.002h-1.114a1.002 1.002 0 0 1-1.005-1.003v-2.279a7.788 7.788 0 0 1-2.746-1.137L6.58 20.63a1.01 1.01 0 0 1-1.42-.002l-.788-.787a1.003 1.003 0 0 1-.002-1.42l1.611-1.613a7.788 7.788 0 0 1-1.137-2.745h-2.28c-.545 0-1.002-.45-1.002-1.006v-1.114c0-.558.45-1.005 1.003-1.005h2.279A7.788 7.788 0 0 1 5.98 8.191L4.37 6.58a1.01 1.01 0 0 1 .002-1.42l.787-.788a1.003 1.003 0 0 1 1.42-.002L8.193 5.98a7.788 7.788 0 0 1 2.745-1.137v-2.28c0-.545.45-1.002 1.006-1.002Zm-.557 6.64a4.296 4.296 0 1 0 0 8.593 4.296 4.296 0 0 0 0-8.593Z" id="ao"/><path id="ar" d="m66 13 4 5h-8z"/><rect id="k" x="0" y="0" width="12" height="12" rx="4"/><rect id="q" x="0" y="0" width="12" height="12" rx="4"/><rect id="u" x="0" y="0" width="12" height="12" rx="4"/><rect id="A" x="0" y="0" width="12" height="12" rx="4"/><rect id="P" x="0" y="0" width="47.667" height="3.25" rx="1.625"/><rect id="ah" x="0" y="0" width="16" height="16" rx="8"/><circle id="al" cx="8" cy="8" r="4"/></defs><g fill="none" fill-rule="evenodd"><g transform="translate(41 58)"><g transform="translate(796.392 278.392)"><mask id="b" fill="#fff"><use xlink:href="#a"/></mask><g mask="url(#b)" fill="#14C684"><path d="M0 0h14v14H0z"/></g></g><path d="M133.418 308.538c85.81 0 200.924-81.117 349.218-82.005 48.078-.288 82.778 6.993 112.215 14.274 29.075 7.19 53.016 14.383 79.64 14.281 54.88-.211 86.937-40.183 86.937-87.705 0-67.902-56.079-119.332-129.434-117.96-47.945.897-93.794 28.67-142.442 29.485-36.453.61-74.005-19.378-115.91-39.365C331.103 19.252 284.076-1.04 229.163.22 129.536 2.504 12.542 71.7 1.459 181.262.354 192.187.44 203.035 1.835 213.52c8.264 62.126 69.333 95.018 131.583 95.018Z" fill="url(#c)" transform="translate(47 20)"/><path d="M760.333 198.67c0 44.891-38.959 97.113-101.271 97.113-70.53 0-116.962-57.01-196.784-57.01-84.112 0-162.196 44.504-245.435 52.286-41.671 3.896-130.209 4.654-136.848-61.895-3.21-32.185 21.146-62.263 40.523-81.053 60.858-59.01 149.08-91.682 227.516-91.682 91.213 0 118.207 53.067 190.326 53.067 32.955 0 48.454-15.455 99.658-15.455 83.845 0 122.315 57.946 122.315 104.63" fill="#200038"/><g transform="translate(79.644 55.41)"><mask id="f" fill="#fff"><use xlink:href="#d"/></mask><path d="M-78.567 26.936c22.176 74.947 138.594 113.257 202.683 113.257 30.847 0 61.122-7.336 87.815-25.923 45.156-31.442 96.868-59.961 146.393-59.961 31.955 0 63 11.872 90.786 42.494 11.674 12.865 27.791 17.209 44.824 17.209 43.067 0 138.276-31.321 138.276-97.951 0-9.864-45.261-78.075-191.602-78.075-61.412 0-132.37 10.038-177.528 10.038-46.584 0-92.647-10.13-139.118-10.13-106.5 0-144.214 11.292-172.192 30.207-16.758 11.33-31.75 30.039-31.75 49.01 0 3.28.449 6.567 1.413 9.825" fill="url(#e)" mask="url(#f)"/><path d="M534.679 228.877c-6.367 14.085-.108 30.666 13.979 37.034 10.785 4.876 23.035 2.347 31.038-5.427a27.918 27.918 0 0 0 5.995-8.549c3.894-8.614 3.07-18.158-1.38-25.732a27.862 27.862 0 0 0-12.595-11.304c-14.089-6.369-30.669-.111-37.037 13.978" fill="#6CD9BE" mask="url(#f)"/><path d="M568.15 229.586c-4.563 10.097 1.282 14.785 1.346 15.204.923 5.965 3.218 12.786 8.274 15.071a9.14 9.14 0 0 0 1.926.623 27.918 27.918 0 0 0 5.995-8.549c3.894-8.614 3.07-18.158-1.38-25.732a14.35 14.35 0 0 0-2.674-1.602c-4.855-2.193-10.87-.804-13.487 4.985" fill="#A1EDDA" mask="url(#f)"/><path d="M32.669 259.52c8.08 1.568 15.902 2.303 23.492 2.303 107.146 0 184.952-160.173 256.828-160.173 9.928 0 30.282 4.924 30.282 14.897 0 17.892-62.31 37.055-63.311 73.104-2.88 103.631-122.138 150.102-197.988 150.102-41.868 0-80.628-29.592-80.628-58.096 0-10.728 6.62-23.514 20.298-23.514 3.751 0 7.598.71 11.027 1.377" fill="url(#g)" mask="url(#f)"/><path d="M337.875 213.554c3.85-43 36.826-76.25 77.388-76.25 18.033 0 49.137 11.586 88.412 11.586 69.119 0 81.954-37.546 101.366-37.546 12.39 0 21.835 9.152 21.835 22.088 0 5.295-1.669 10.63-4.938 14.852-26.388 34.084-70.508 33.843-108.503 33.603-25.257-.16-47.809-.318-60.648 9.604-21.603 16.696-23.95 49.836-72.754 49.836-22.736 0-42.275-2.553-42.275-25.179 0-.854.038-1.72.117-2.594" fill="url(#h)" mask="url(#f)"/><path d="M579.385 201.288c37.096-7.092 53.484-47.021 102.594-47.021 21.564 0 26.572 11.688 26.572 29.553 0 78.833-114.572 93.062-193.604 93.062-16.768 0-35.198-14.402-35.198-31.866 0-2.083.264-4.21.822-6.361 11.243-43.281 63.943-30.701 98.814-37.367Z" fill="url(#i)" mask="url(#f)"/></g><rect fill="url(#j)" x="261" y="261" width="57" height="7" rx="1"/><rect fill="url(#j)" x="261" y="297" width="57" height="7" rx="1"/><rect fill="url(#j)" x="261" y="279" width="57" height="7" rx="1"/><path d="m89.673 226.996-.287-.18-.268-.186.555.366m-4.104-2.84a14.302 14.302 0 0 1-.617-.452l.617.453m-4.147-3.19c-.09-.07-.178-.14-.265-.213l-.052-.045.317.258" fill="#783923"/><path d="m66.752 206.356-.045-.052a9.49 9.49 0 0 1 .045.052m-2.996-3.848a14.112 14.112 0 0 1-.449-.612c.15.206.298.407.45.612" fill="#6B492E"/><path d="M226.416 202.419c.125-.168.245-.333.368-.501l-.181.26-.187.24" fill="#783923"/><path d="m60.831 198.342-.187-.267-.179-.286c.122.185.243.37.366.553" fill="#6B492E"/><path d="m229.318 198.28.351-.533c-.115.18-.232.356-.351.533m2.635-4.186c.126-.211.251-.421.375-.632l-.121.216c-.084.139-.168.278-.254.416" fill="#783923"/><path d="M55.715 189.764a21.055 21.055 0 0 1-.3-.567l.3.567" fill="#6B492E"/><path d="m234.443 189.668.075-.141c-.02.04-.04.08-.063.119l-.012.022m.258-94.033a25.672 25.672 0 0 1-.139-.263c.023.044.048.087.073.131l.066.132m-6.367-10.554" fill="#664F39"/><path d="M205.447 61.328" fill="#6B492E"/><path d="m85.04 61.046.243-.188.26-.182-.504.37m8.322-5.535c.14-.087.28-.173.422-.257l.22-.123c-.216.127-.427.251-.642.38m4.436-2.496c.006-.003.013-.006.018-.01l.107-.056-.125.066" fill="#783923"/><path d="m192.09 52.9-.267-.14.135.066.132.073" fill="#6B492E"/><g transform="translate(243 258)"><mask id="l" fill="#fff"><use xlink:href="#k"/></mask><g mask="url(#l)" fill="#7D58FF"><path d="M0 0h12v12H0z"/></g><mask id="n" fill="#fff"><use xlink:href="#m"/></mask><g mask="url(#n)" fill="#7D58FF"><path d="M0 0h12v12H0z"/></g><mask id="p" fill="#fff"><use xlink:href="#o"/></mask><g mask="url(#p)" fill="#FFF"><path d="M0 0h12v12H0z"/></g></g><g transform="translate(243 276)"><mask id="r" fill="#fff"><use xlink:href="#q"/></mask><g mask="url(#r)" fill="#FFF"><path d="M0 0h12v12H0z"/></g><mask id="t" fill="#fff"><use xlink:href="#s"/></mask><g mask="url(#t)" fill="#DADDE2"><path d="M0 0h12v12H0z"/></g></g><g transform="translate(243 276)"><mask id="v" fill="#fff"><use xlink:href="#u"/></mask><g mask="url(#v)" fill="#7D58FF"><path d="M0 0h12v12H0z"/></g><mask id="x" fill="#fff"><use xlink:href="#w"/></mask><g mask="url(#x)" fill="#7D58FF"><path d="M0 0h12v12H0z"/></g><mask id="z" fill="#fff"><use xlink:href="#y"/></mask><g mask="url(#z)" fill="#FFF"><path d="M0 0h12v12H0z"/></g></g><g transform="translate(243 294)"><mask id="B" fill="#fff"><use xlink:href="#A"/></mask><g mask="url(#B)" fill="#FFF"><path d="M0 0h12v12H0z"/></g><mask id="D" fill="#fff"><use xlink:href="#C"/></mask><g mask="url(#D)" fill="#DADDE2"><path d="M0 0h12v12H0z"/></g></g><path d="M164.057 308.14h-.015c-2.61-.065-5.254-.09-7.81-.116-17.672-.175-42.545-3.342-53.749-5.904a.618.618 0 1 1 .275-1.204c12.992 2.97 37.947 5.72 53.485 5.873 2.562.025 5.21.05 7.83.115a.618.618 0 0 1-.016 1.236M59.175 285.225a.615.615 0 0 1-.332-.097l-.416-.266c-8.62-5.514-13.016-9.366-18.722-15.208-.648-.663-1.318-1.349-2.012-2.043a.622.622 0 0 1-.116-.161l-.376-.75c-12.418-14.079-16.963-27.752-19.585-46.104a.645.645 0 0 1-.006-.088v-1.744c-.703-5.523-.396-10.983-.02-16.102a.618.618 0 0 1 1.231.089c-.371 5.07-.676 10.472.02 15.895a.624.624 0 0 1 .005.078v1.74c2.556 17.887 7.415 31.99 19.335 45.478.035.04.065.085.09.133l.366.733c.674.675 1.323 1.34 1.951 1.983 5.727 5.862 10.033 9.612 18.504 15.029l.417.266a.618.618 0 0 1-.334 1.14M794.827 121.767a.619.619 0 0 1-.46-.206 87.072 87.072 0 0 0-7.14-7.104c-.69-.613-1.411-1.237-2.149-1.857a.62.62 0 0 1-.075-.87.62.62 0 0 1 .872-.075c.743.626 1.475 1.257 2.172 1.878a88.209 88.209 0 0 1 7.242 7.206.618.618 0 0 1-.462 1.028M643.417 336.985c-8.872 0-17.319-.39-25.005-.842-1.433-.003-2.984-.287-4.328-.556-4.035-.409-8.103-.757-12.04-1.094-3.94-.336-8.013-.684-12.058-1.095-.475-.007-.912-.145-1.334-.285-6.767-.737-13.218-1.801-18.64-2.744-3.29-.626-6.45-1.082-9.505-1.52-2.302-.332-4.68-.673-7.1-1.086l-.017-.005c-.69-.137-1.354-.277-1.997-.413-.635-.133-1.291-.271-1.97-.407-4.088-.629-8.027-1.408-11.836-2.16-2.87-.569-5.837-1.155-8.887-1.683l-.014-.002c-4.59-.9-8.804-1.842-13.266-2.837a905.817 905.817 0 0 0-7.02-1.55c-.214-.027-.384-.14-.525-.235a1.467 1.467 0 0 0-.077-.05c-3.016-.617-5.872-1.245-8.635-1.851-2.752-.604-5.597-1.229-8.597-1.842-.236-.024-.417-.144-.542-.227-.041-.027-.08-.053-.11-.068a.618.618 0 0 1 .578-1.093c.085.045.158.094.215.132.017.01.037.025.054.034l.012.003c3.024.619 5.887 1.248 8.655 1.854 2.755.606 5.602 1.23 8.605 1.845.212.026.385.141.527.236l.078.05c2.414.521 4.77 1.047 7.05 1.556 4.453.994 8.657 1.932 13.23 2.829 3.061.53 6.034 1.118 8.908 1.686 3.802.751 7.731 1.528 11.798 2.154l.028.005c.689.138 1.353.278 1.995.414.639.133 1.296.271 1.977.409 2.4.409 4.77.749 7.058 1.078 3.07.442 6.244.9 9.552 1.53 5.41.94 11.861 2.003 18.617 2.738a.584.584 0 0 1 .129.027c.374.125.729.243 1.04.243l.062.003c4.045.411 8.124.76 12.068 1.098 3.95.337 8.035.686 12.088 1.098.02.002.04.005.06.01 1.299.259 2.796.536 4.133.536l.036.001c14.377.846 31.43 1.474 48.901-.273a.93.93 0 0 1 .062-.003h1.34c5.327-.576 9.876-1.122 14.748-1.911.73-.143 1.45-.282 2.165-.42 4.12-.794 8.013-1.543 12.205-2.592 5.563-1.283 10.655-2.863 15.33-4.38.647-.215 1.328-.358 1.985-.496.65-.138 1.263-.267 1.844-.459.233-.088.46-.175.683-.262.833-.321 1.62-.624 2.507-.847l2.43-.81c1.354-.542 2.754-1.102 4.143-1.519.138-.048.269-.125.418-.215.18-.107.382-.228.633-.317.248-.114.453-.114.578-.114.023 0 .055 0 .064-.002l.063-.029c1.564-.579 3.11-1.297 4.604-1.99 2.005-.932 4.079-1.894 6.223-2.535 1.315-.68 2.647-1.338 3.938-1.976 2.6-1.285 5.288-2.613 7.922-4.158l.035-.02c.289-.143.608-.286.919-.423.288-.129.586-.26.842-.388 1.398-.86 2.769-1.665 4.095-2.445 2.113-1.242 4.11-2.415 6.246-3.81.277-.277.57-.563 1.009-.855 6.175-4.028 11.555-8.28 16.937-13.386a19.85 19.85 0 0 1 1.1-.813c.333-.233.648-.453.964-.704 2.18-2.308 4.436-4.697 6.672-7.354.377-.453.818-.82 1.245-1.175.383-.318.745-.62 1.044-.969.313-.595.745-1.03 1.165-1.449 3.006-3.4 5.376-6.788 8.122-10.711l.328-.468c.49-.737.827-1.422 1.184-2.147.217-.44.442-.897.707-1.375.456-.781.966-1.497 1.46-2.19.584-.819 1.186-1.664 1.693-2.606 3.423-6.702 6.103-13.136 8.19-19.66.01-.03.023-.06.036-.087.124-.246.217-.499.318-.765.103-.272.207-.553.35-.843.365-1.105.603-2.142.857-3.239.11-.479.224-.973.35-1.478a.613.613 0 0 1 .164-.287c.055-.056.112-.101.162-.143.023-.017.052-.042.075-.061l.001-.013c.326-1.905.747-3.756 1.153-5.547.816-3.583 1.584-6.966 1.584-10.544 0-.06.009-.117.025-.173.745-2.554.811-5.35.876-8.054.016-.686.033-1.397.06-2.092l.001-.026c.37-4.43.326-9.152-.137-14.86a156.916 156.916 0 0 0-2.818-19.3c-.59-.478-.613-1.282-.615-1.818a134.712 134.712 0 0 0-1.758-7.026c-.54-1.616-1.095-3.288-1.51-4.945a2.361 2.361 0 0 0-.212-.407c-.107-.179-.23-.38-.319-.633-.112-.249-.112-.452-.112-.577l-.001-.055c-.588-.899-.873-1.787-1.133-2.691-.666-1.6-1.356-3.253-2.164-4.87l-.014-.029a71.546 71.546 0 0 0-3.275-6.536.618.618 0 0 1 1.075-.608 72.667 72.667 0 0 1 3.325 6.635c.83 1.662 1.53 3.34 2.207 4.966a.45.45 0 0 1 .024.067c.24.837.498 1.654 1.018 2.435a1.277 1.277 0 0 1 .173.686l.001.065c.013.026.027.055.036.084.047.14.127.273.218.425.113.188.24.402.331.673.004.015.01.03.012.045.407 1.624.961 3.287 1.498 4.896l.008.028c.69 2.48 1.242 4.69 1.793 7.17.01.043.015.088.015.134 0 .466.015.862.207.956.167.085.288.24.328.424a158.004 158.004 0 0 1 2.893 19.706c.468 5.773.512 10.554.139 15.05-.028.679-.044 1.38-.06 2.057-.065 2.754-.132 5.601-.9 8.286-.012 3.684-.79 7.107-1.614 10.729-.4 1.762-.815 3.585-1.133 5.442-.025.422-.302.683-.475.827-.106.429-.203.853-.298 1.264-.263 1.141-.512 2.218-.903 3.393a.597.597 0 0 1-.034.081c-.123.246-.217.498-.317.765-.102.27-.206.55-.348.838-2.105 6.573-4.808 13.054-8.258 19.814-.55 1.021-1.176 1.9-1.782 2.748-.5.701-.971 1.364-1.393 2.086-.243.44-.461.881-.672 1.31-.36.73-.732 1.485-1.269 2.29l-.008.011-.332.475c-2.77 3.958-5.162 7.377-8.22 10.835l-.026.027c-.387.387-.752.752-.983 1.212a.56.56 0 0 1-.078.12c-.379.454-.82.822-1.245 1.177-.402.334-.78.65-1.088 1.019-2.272 2.698-4.549 5.108-6.75 7.44a.63.63 0 0 1-.063.058c-.359.287-.717.536-1.061.78-.338.235-.658.459-.979.714-5.43 5.15-10.86 9.44-17.087 13.502-.356.237-.602.483-.861.742a.62.62 0 0 1-.1.081c-2.18 1.425-4.298 2.671-6.347 3.875-1.329.78-2.703 1.59-4.097 2.447-.016.01-.032.02-.048.026-.287.144-.608.287-.918.424-.29.13-.59.262-.849.391-2.666 1.562-5.367 2.898-7.98 4.19-1.303.643-2.65 1.309-3.972 1.992a.603.603 0 0 1-.106.043c-2.079.616-4.037 1.525-6.111 2.488-1.508.7-3.068 1.425-4.667 2.02-.252.116-.46.116-.584.116l-.065.001c-.027.013-.056.026-.084.036-.14.047-.273.126-.426.218-.188.113-.401.24-.672.33l-.017.006c-1.347.404-2.729.957-4.066 1.492l-.034.013-2.47.823c-.016.004-.03.01-.046.013-.822.205-1.58.498-2.384.808-.23.09-.465.178-.705.269l-.022.008c-.651.217-1.332.36-1.99.498-.653.138-1.269.268-1.853.463-4.707 1.526-9.83 3.116-15.429 4.407-4.214 1.054-8.121 1.808-12.26 2.605-.716.137-1.44.277-2.172.42l-.02.003c-4.911.796-9.49 1.346-14.855 1.926a.529.529 0 0 1-.066.004h-1.343c-8.187.818-16.278 1.116-24.043 1.116M573.99 35.612c-1.527 0-3.083.121-4.655.369-5.967.939-11.802 4.028-17.448 7.016-2.002 1.06-3.895 2.062-5.745 2.94-11.617 5.514-20.357 8.535-28.34 9.795-3.852.608-8.238 1.525-11.533 4.732-3.836 3.734-4.774 9.383-2.508 15.11 1.568 3.963 4.468 7.235 7.57 8.538 4.78 2.01 17.07 3.715 31.306 3.086 16.471-.728 30.623-4.371 39.85-10.258 8.642-5.515 13.196-12.98 13.537-22.189.183-4.971-2.03-9.88-6.074-13.469-4.166-3.695-9.816-5.67-15.961-5.67Zm-37.307 52.952c-11.81 0-21.619-1.543-25.831-3.313-3.448-1.45-6.528-4.897-8.24-9.222-2.456-6.207-1.41-12.356 2.795-16.45 3.555-3.46 8.162-4.43 12.203-5.068 7.86-1.24 16.496-4.228 28.002-9.69 1.826-.867 3.706-1.862 5.698-2.916 5.466-2.894 11.663-6.173 17.833-7.144 8.268-1.302 16.15.738 21.626 5.597 4.321 3.834 6.686 9.097 6.488 14.439-.355 9.637-5.101 17.438-14.106 23.184-5.085 3.245-11.5 5.803-19.063 7.602-6.517 1.551-13.716 2.51-21.397 2.849-2.046.09-4.055.132-6.008.132Z" fill="#FFF"/><g transform="translate(571.281 201.623)"><mask id="F" fill="#fff"><use xlink:href="#E"/></mask><path fill="#1F0030" mask="url(#F)" d="M.047 40.154h63.66V.06H.047z"/></g><path d="M576.063 217.94a42.67 42.67 0 0 1-2.922-7.142 44.334 44.334 0 0 0 2.922 7.141m-3.578-9.485a41.455 41.455 0 0 1-.892-4.489h.005c.218 1.51.516 3.009.887 4.489" fill="#002960"/><path d="M656.87 182.634a44.514 44.514 0 0 0-2.192-5.051 45.019 45.019 0 0 1 1.557 3.383c.229.563.442 1.119.638 1.665l-.003.003" fill="#1F0030"/><path d="M659.16 192.137a42.876 42.876 0 0 0-.536-3.238 48.06 48.06 0 0 0-.619-2.657l-.255-.147c.085.05.17.1.255.147a44.435 44.435 0 0 0-1.135-3.608l.003-.003c.546 1.51.976 2.952 1.317 4.303.48 1.94.78 3.688.97 5.203" fill="#002960"/><path d="M573.113 184.621a43.809 43.809 0 0 1 2.72-6.751c.226-.442.448-.886.695-1.315a44.238 44.238 0 0 0-2.74 6.076c-.242.66-.467 1.323-.675 1.99m14.235-3.776c-2.403-3.51-4.551-7.182-6.312-11.018a40.548 40.548 0 0 0-2.065 2.76 39.295 39.295 0 0 0-1.087 1.648c.111-.186.224-.372.343-.551a43.484 43.484 0 0 1 3.116-4.237c-.104.126-.206.252-.307.38 1.76 3.836 3.909 7.507 6.312 11.018" fill="#1F0030"/><path d="M605.055 163.016a268.864 268.864 0 0 1-5.744-6.51 43.243 43.243 0 0 0-4.837 2.223c-.19.1-.38.203-.568.306a44.053 44.053 0 0 1 16.783-5.29 44.442 44.442 0 0 0-11.378 2.76c1.877 2.2 3.795 4.372 5.744 6.511" fill="#002960"/><path d="M638.014 159.772a44.539 44.539 0 0 0-4.943-2.556v-.001a42.758 42.758 0 0 1 4.943 2.557" fill="#1F0030"/><path d="m633.07 157.216-.329-.144.33.143v.001M652.71 221.218l.067-.108.043-.066-.065.104-.045.07m1.529-2.616a43.873 43.873 0 0 0 3.151-7.386 43.433 43.433 0 0 1-2.02 5.149 40.308 40.308 0 0 1-1.131 2.237m3.408-8.213c.042-.144.085-.287.126-.431-.04.143-.082.287-.126.43" fill="#002960"/><path d="m659.375 200.946-.015-.01c.038-.57.056-1.036.084-1.386l.048-.795s-.016.27-.043.795c-.025.353-.04.82-.074 1.396M659.492 198.755s.002-.21.01-.619c-.002.41-.01.62-.01.62" fill="#E8AC7C"/><path d="M373.33 117.873c.67-.256 1.321-.542 1.957-.858a22.772 22.772 0 0 0 5.36-3.707 22.722 22.722 0 0 0 2.195-2.328l-.112-.007c.014-.018.027-.036.042-.052l.098.059a22.724 22.724 0 0 0 5.122-14.383c-.096.103-.19.215-.284.332l.003-.29v-.054c.023-.532.028-1.065.015-1.598l-.028-.673-.05-.672c-.04-.433-.116-.897-.172-1.344a20.175 20.175 0 0 0-.504-2.38l.02-.035a22.725 22.725 0 0 0-.35-1.052 22.152 22.152 0 0 0-1.888-4.152 22.656 22.656 0 0 0-3.335-4.298 22.982 22.982 0 0 1 3.367 4.279 22.745 22.745 0 0 1 2.25 4.956c.274.867.504 1.75.66 2.645.074.45.156.896.218 1.347l.078.677.055.68a23.12 23.12 0 0 1-.279 5.437 22.689 22.689 0 0 1-1.559 5.215c-.18.418-.394.82-.589 1.23-.193.412-.411.811-.642 1.203a22.957 22.957 0 0 1-9.908 9.084c-.568.27-1.149.518-1.74.739" fill="#00296E"/><path d="M386.972 89.918a19.524 19.524 0 0 0-.33-1.087c.126.347.242.698.35 1.052l-.02.035" fill="#6CC700"/><path d="M351.309 114.686a20.69 20.69 0 0 1-1.672-1.388 9.876 9.876 0 0 1-.844-.85 22.92 22.92 0 0 0 1.703 1.582c.265.225.537.443.813.656M381.419 80.381a22.805 22.805 0 0 0-4.122-3.236 21.31 21.31 0 0 0-1.535-.837 23.298 23.298 0 0 0-1.753-.778 19.875 19.875 0 0 0-.457-.187l.008-.004a22.73 22.73 0 0 0-8.389-1.593h-.007a22.699 22.699 0 0 0-8.623 1.69 22.36 22.36 0 0 1 2.229-.792 22.854 22.854 0 0 1 6.577-.944 23.142 23.142 0 0 1 3.825.33 22.83 22.83 0 0 1 6.617 2.225 22.658 22.658 0 0 1 5.63 4.126" fill="#00296E"/><path d="M349.181 82.515h.002l.001-.003-.003.003" fill="#6CC700"/><path d="M727.725 269.345a17.66 17.66 0 0 1-3.35-2.649 17.93 17.93 0 0 1-3.11-4.205 17.17 17.17 0 0 1-.711-1.508c.203.483.428.955.672 1.415a17.953 17.953 0 0 0 6.54 6.91.528.528 0 0 1-.041.037" fill="#00204F"/><path d="M440.631 68.826a20.446 20.446 0 0 0-9.516-5.39 20.455 20.455 0 0 0-2.338-.438c-5.858-.753-11.978 1.027-16.59 5.344a20.15 20.15 0 0 0-2.95 3.436 20.068 20.068 0 0 0-2.038 3.778 20.567 20.567 0 0 0-.409 14.406 20.25 20.25 0 0 0 2.453 4.884 20.57 20.57 0 0 0 2.436 2.933 20.504 20.504 0 0 0 4.182 3.225 20.18 20.18 0 0 0 4.838 2.033c6.87 1.893 14.535.142 19.935-5.258a20.396 20.396 0 0 0 4.77-7.477c.143-.402.278-.803.392-1.207.57-1.94.85-3.947.83-5.952 0-.54-.027-1.08-.078-1.619a20.194 20.194 0 0 0-1.499-6.112 20.372 20.372 0 0 0-4.418-6.586" fill="#FF6373"/><path d="M405.684 83.306c0 1.131.09 2.236.269 3.319.537-.163 1.191-.318 1.8-.318 2.225 0 11.302 7.35 14.026 7.35 1.726 0 3.369-1.586 5.318-1.586 4.167 0 5.125 5.87 6.986 10.116a20.578 20.578 0 0 0 10.476-9.897 4.904 4.904 0 0 0-.678-.045c-1.55 0-3.148.586-4.753.586-2.282 0-1.865-2.172-4.068-2.172-.728 0-1.473.246-2.207.246-3.482 0-1.362-4.689-5.313-4.689-2.244 0-4.023 2.854-6.305 2.854-2.464 0-3.168-3.85-5.193-4.716-4.42-1.896-7.186-6.184-8.825-8.83a20.38 20.38 0 0 0-1.533 7.782M416.363 65.321c11.154 7.361 22.864 10.976 29.59 12.747a20.22 20.22 0 0 0-1.984-4.86c-9.243-.295-17.863-4.965-26.473-8.462-.387.182-.765.371-1.133.575M410.478 70.143c10.124 8.693 22.588 15.13 35.8 16.959.23-1.23.35-2.561.35-3.86 0-1.203-.1-2.495-.301-3.593h-.345c-11.433 0-26.78-7.196-34.413-10.769-.383.382-.746.847-1.09 1.263M408.602 93.846c.409.681.859 1.336 1.344 1.964 13.018 4.878 14.588 6.048 15.508 7.951a20.155 20.155 0 0 0 4.516-.344c-4.5-6.445-13.209-8.31-21.368-9.571" fill="#FF9263"/><path d="M415.878 101.013a20.82 20.82 0 0 1-.017-.01l.017.01m-1.63-1.051a20.043 20.043 0 0 1-2.568-2.182h-.001a20.55 20.55 0 0 0 2.57 2.182m-2.577-2.19" fill="#001F50"/><path d="M425.45 103.753a20.51 20.51 0 0 1-6.266-1.196 20.488 20.488 0 0 1-3.306-1.544l-.017-.01a21.25 21.25 0 0 1-1.6-1.033l-.013-.008a20.55 20.55 0 0 1-2.569-2.182l-.007-.007a7265.2 7265.2 0 0 0-.062-.063 20.626 20.626 0 0 1-1.664-1.9c1.909.716 3.574 1.352 5.026 1.922.101.08.204.16.309.238a20.94 20.94 0 0 0 2.25 1.46c.779.435 1.588.814 2.423 1.128.416.158.836.308 1.263.44l.04.012a5.54 5.54 0 0 1-.02-.005h-.001l.09.024.18.049.359.096.36.097c.114.029.248.072.344.086l.616.123.088.018c1.319.83 1.803 1.482 2.178 2.255" fill="#FF4453"/><path d="M445.896 88.742" fill="#08163D"/><path d="M429.964 103.41a15.228 15.228 0 0 0-1.314-1.63 18.77 18.77 0 0 0 4.303-.864c.185-.05.362-.12.54-.187.189.496.382.983.587 1.45a20.168 20.168 0 0 1-4.116 1.23m13.689-9.466.017-.027-.017.027m.906-1.653a4.904 4.904 0 0 0-.826-.043c.15-.256.292-.514.43-.773.177-.35.347-.701.502-1.056l.115-.266.015-.033.01-.023-.003.012.026-.07.052-.14.21-.552.105-.275.052-.137.001-.005v.003s.002-.002.004-.013l.013-.035.023-.069a20.97 20.97 0 0 0 .516-1.781c.156.023.314.046.47.067l-.036.195a25.05 25.05 0 0 1-.236 1.05c-.035.132-.069.264-.106.396-.071.262-.152.524-.24.786a18.69 18.69 0 0 1-1.097 2.762" fill="#FF4453"/><path d="M434.08 102.18a32.703 32.703 0 0 1-.588-1.451l.076-.029.608-.23c.206-.067.397-.168.596-.252l.591-.263c.39-.183.762-.398 1.144-.594.373-.208.727-.446 1.093-.666.092-.054.18-.113.265-.177l.258-.186.516-.37c.178-.118.333-.26.496-.393l.486-.402a18.105 18.105 0 0 0 1.787-1.739 19.6 19.6 0 0 0 2.325-3.181l.148-.002c.235 0 .463.015.678.045l-.11.221a20.798 20.798 0 0 1-.78 1.405l-.016.027c-.296.485-.615.962-.956 1.43l-.002.001-.018.025c-.2.271-.406.538-.617.8-.507.62-1.05 1.222-1.646 1.785l-.487.455c-.163.15-.321.31-.5.446l-.523.426-.263.214a2.997 2.997 0 0 1-.27.205c-1.299.97-2.743 1.802-4.291 2.45" fill="#FF6548"/><path d="M410.086 95.613a48.348 48.348 0 0 1-.96-.957c.137.138.27.276.407.413l.553.544" fill="#001F50"/><path d="M408.918 72.258" fill="#08163D"/><path d="M409.89 95.737a19.6 19.6 0 0 1-.647-.891l-.143-.211-.008-.013-.006-.009a20.391 20.391 0 0 1-2.203-4.384 21.916 21.916 0 0 1-.796-2.868c-.049-.245-.093-.49-.134-.737.538-.162 1.191-.317 1.8-.317.067 0 .14.006.217.019.042.21.086.42.132.63a19.781 19.781 0 0 0 1.311 3.785 18.47 18.47 0 0 0 1.307 2.337c.12.185.248.376.372.552l.199.282.197.268.125.163c-1.006-.18-2.013-.343-3.011-.497.392.655.825 1.285 1.287 1.891m-1.588-18.516a55.28 55.28 0 0 1-1.084-1.696 19.094 19.094 0 0 1 .826-1.774 20.52 20.52 0 0 1 1.683-2.66c.288-.389.587-.764.899-1.127l-.147.179c.303.26.61.52.918.776a18.196 18.196 0 0 0-.988 1.47l-.17.285c-.063.103-.107.184-.16.276a18.767 18.767 0 0 0-1.552 3.548l-.11.336-.056.168-.04.151-.019.068" fill="#FF4453"/><path d="M405.953 86.624a20.644 20.644 0 0 1 1.1-10.688l.072-.187c.03-.075.06-.15.092-.224a55.28 55.28 0 0 0 1.084 1.696l-.145.538c-.095.424-.202.85-.27 1.285a17.668 17.668 0 0 0-.28 2.626c-.023.884-.024 1.77.067 2.655.066.67.168 1.338.297 2.001a1.358 1.358 0 0 0-.216-.02c-.61 0-1.263.156-1.801.318" fill="#FF6548"/><path d="M446.3 79.649h-.186a22.059 22.059 0 0 0-.318-1.622l.155.04a22.086 22.086 0 0 1 .35 1.582m-1.95-5.734a21.702 21.702 0 0 0-.382-.707l-.044-.001a19.543 19.543 0 0 0-2.315-3.319c-.308-.356-.554-.62-.722-.796l-.257-.266.258.264a20.591 20.591 0 0 1 3.083 4.12c.127.225.254.46.38.705m-31.69-4.524-1.053-.492c.108-.109.22-.215.33-.32l.238-.229.247-.218c.33-.288.647-.585.993-.844a20.339 20.339 0 0 1 2.952-1.964c.239.158.478.314.718.468a19.522 19.522 0 0 0-3.062 2.257c-.315.265-.601.567-.897.859l-.215.214-.225.242-.026.027" fill="#FF4453"/><path d="M440.631 68.826a37.42 37.42 0 0 0-.148-.147c.099.096.148.147.148.147" fill="#200028"/><path d="m440.631 68.826-.213-.21.065.063.148.147" fill="#FF4453"/><path d="M429.659 63.13" fill="#200028"/><path d="m440.418 68.616-.05-.048a20.414 20.414 0 0 0-2.158-1.796 18.246 18.246 0 0 0-1.98-1.254 19.379 19.379 0 0 0-5.927-2.1 16.8 16.8 0 0 0-1.861-.237c-.324-.017-.656-.054-.986-.054-.248 0-.498-.007-.752-.007-.081 0-.163 0-.246.002l-1.028.047c-.346.034-.696.065-1.047.106l-1.06.174-1.07.235a19.723 19.723 0 0 0-3.893 1.417c-.285-.118-.57-.235-.856-.351a20.363 20.363 0 0 1 4.657-1.528 20.368 20.368 0 0 1 4.301-.387c.344.004.681.029 1.016.042.335.013.662.06.986.089.192.018.381.04.568.066a20.403 20.403 0 0 1 1.304.226 20.382 20.382 0 0 1 8.045 3.62l.014.011c.002 0 .002.001.003.002a21.22 21.22 0 0 1 1.97 1.676l.05.05" fill="#FF4453"/><path d="M445.95 78.068a64.65 64.65 0 0 1-.154-.042 18.231 18.231 0 0 0-.654-2.157 20.705 20.705 0 0 0-1.217-2.662l.044.001a20.525 20.525 0 0 1 1.982 4.86m-28.864-12.276c-.24-.154-.48-.31-.718-.468a20.19 20.19 0 0 1 1.135-.574c.285.116.571.233.856.351a28.97 28.97 0 0 0-.38.191c-.3.158-.598.325-.893.5M446.275 87.101a61.658 61.658 0 0 1-.471-.067c.328-1.374.502-2.73.524-4.036.02-.675-.01-1.332-.056-1.98a16.126 16.126 0 0 0-.158-1.37h.187c.078.437.143.886.195 1.346.07.646.125 1.314.129 2.002.005.384 0 .774-.015 1.169a22.259 22.259 0 0 1-.14 1.694 21.27 21.27 0 0 1-.195 1.242M411.396 70.92a72.03 72.03 0 0 1-.918-.776c.05-.059.098-.118.147-.179a20.607 20.607 0 0 1 .984-1.065l1.053.492-.2.215-.013.012.006-.004.005-.005-.003.004-.027.031-.055.063-.106.121c-.3.349-.594.714-.873 1.09M426.132 103.764c-.227 0-.455-.004-.681-.011-.375-.773-.86-1.425-2.178-2.255.175.036.35.076.545.096l.658.097c.11.016.22.035.33.048l.332.026c.417.033.834.077 1.252.077h.074l.664.012.662-.024a18.8 18.8 0 0 0 .86-.05c.471.508.909 1.05 1.314 1.63a20.856 20.856 0 0 1-3.832.354m-11.16-6.032a352.842 352.842 0 0 0-5.026-1.922l-.057-.073a20.386 20.386 0 0 1-1.287-1.891c.998.154 2.005.317 3.011.497a17.867 17.867 0 0 0 1.175 1.378l.232.243.23.23.25.247.24.23a18.698 18.698 0 0 0 1.231 1.06" fill="#FF6548"/><path d="m510.628 181.816.937.2c.327.07.582.325.652.652l.202.937.2-.937a.849.849 0 0 1 .653-.652l.937-.2-.937-.202a.849.849 0 0 1-.652-.652l-.2-.937-.203.937a.849.849 0 0 1-.652.652l-.937.202" fill="#FFF"/><path d="m562.295 123.85 4.232.907a3.83 3.83 0 0 1 2.944 2.944l.907 4.232.906-4.232a3.834 3.834 0 0 1 2.945-2.944l4.232-.907-4.232-.906a3.838 3.838 0 0 1-2.945-2.945l-.906-4.232-.907 4.232a3.834 3.834 0 0 1-2.944 2.945l-4.232.906" fill="#FFB700"/><path d="m540.93 74.055 2.19.469c.763.163 1.36.76 1.523 1.523l.468 2.189.47-2.189c.163-.763.76-1.36 1.523-1.523l2.19-.47-2.19-.468a1.983 1.983 0 0 1-1.523-1.523l-.47-2.189-.468 2.189a1.983 1.983 0 0 1-1.523 1.523l-2.19.469M318.34 108.307l4.03.863a3.651 3.651 0 0 1 2.803 2.805l.864 4.029.863-4.029a3.655 3.655 0 0 1 2.805-2.805l4.029-.863-4.029-.864a3.651 3.651 0 0 1-2.805-2.804l-.863-4.03-.864 4.03a3.648 3.648 0 0 1-2.804 2.804l-4.03.864" fill="#FFF"/><path d="m310.225 311.675 4.03.864a3.651 3.651 0 0 1 2.804 2.805l.863 4.028.863-4.028a3.655 3.655 0 0 1 2.806-2.805l4.028-.864-4.028-.863a3.651 3.651 0 0 1-2.806-2.804l-.863-4.03-.863 4.03a3.648 3.648 0 0 1-2.804 2.804l-4.03.863" fill="#B394FB"/><path d="m611.943 274.803 4.03.863a3.648 3.648 0 0 1 2.804 2.804l.863 4.03.864-4.03a3.651 3.651 0 0 1 2.805-2.804l4.029-.863-4.029-.864a3.655 3.655 0 0 1-2.805-2.805l-.864-4.029-.863 4.029a3.651 3.651 0 0 1-2.804 2.805l-4.03.864" fill="#8A69FF"/><path d="m722.556 204.962 1.216.26c.426.091.756.423.848.848l.261 1.217.26-1.217a1.1 1.1 0 0 1 .848-.847l1.216-.261-1.216-.26a1.1 1.1 0 0 1-.847-.848l-.26-1.217-.262 1.217a1.104 1.104 0 0 1-.848.847l-1.216.26M28.698 177.18l2.271.488c.792.17 1.411.788 1.582 1.581l.485 2.27.488-2.27a2.055 2.055 0 0 1 1.58-1.581l2.271-.487-2.272-.486a2.057 2.057 0 0 1-1.58-1.581l-.487-2.272-.485 2.272a2.06 2.06 0 0 1-1.582 1.58l-2.271.487M481.134 328.736l2.271.486c.792.17 1.411.789 1.58 1.58l.488 2.272.485-2.271a2.06 2.06 0 0 1 1.582-1.581l2.271-.486-2.271-.488a2.058 2.058 0 0 1-1.582-1.58l-.485-2.27-.488 2.27a2.055 2.055 0 0 1-1.58 1.58l-2.271.488M26.865 217.868l4.409.944a3.993 3.993 0 0 1 3.069 3.069l.944 4.409.946-4.41a3.993 3.993 0 0 1 3.069-3.068l4.408-.944-4.408-.945a3.993 3.993 0 0 1-3.07-3.069l-.945-4.409-.944 4.41a3.993 3.993 0 0 1-3.069 3.068l-4.409.945M188.47 280.724l1.218.26c.424.091.755.423.846.847l.261 1.218.261-1.218c.09-.424.423-.756.847-.847l1.217-.26-1.217-.261a1.102 1.102 0 0 1-.847-.847l-.26-1.217-.262 1.217a1.104 1.104 0 0 1-.846.847l-1.218.26M684.852 198.127a2.389 2.389 0 0 0-2.386 2.385 2.389 2.389 0 0 0 2.386 2.386 2.388 2.388 0 0 0 2.384-2.386 2.388 2.388 0 0 0-2.384-2.385Zm0 5.594a3.213 3.213 0 0 1-3.21-3.209c0-1.769 1.44-3.209 3.21-3.209 1.769 0 3.207 1.44 3.207 3.21a3.212 3.212 0 0 1-3.207 3.208Z" fill="#FFF"/><path d="M343.44 240.307a2.796 2.796 0 1 0 5.593.002 2.796 2.796 0 0 0-5.593-.002" fill="#FFB700"/><path d="M81.24 146.876a3.375 3.375 0 1 0 6.751 0 3.375 3.375 0 0 0-6.75 0M666.991 55.088a1.406 1.406 0 0 0 0 2.81c.775 0 1.405-.63 1.405-1.405s-.63-1.405-1.405-1.405Zm0 3.633a2.23 2.23 0 0 1-2.228-2.228c0-1.23 1-2.229 2.228-2.229 1.23 0 2.229 1 2.229 2.229 0 1.228-1 2.228-2.229 2.228ZM480.735 268.6l24.827 10.92c1.85.744 10.995-6.112 11.967-7.898l23.219-48.016c2.897-5.034 1.19-13.062-3.096-13.607l-49.86-7.633c-1.161-.311-2.385.408-2.792 1.638l-16.912 55.354 12.647 9.242" fill="#FFF"/><path d="m538.96 213.603-37.955 69.85a5.38 5.38 0 0 1-6.743 2.485l-34.531-15.021-17.72-12.741 23.572-71.679a3.046 3.046 0 0 1 3.725-1.902l55.678 12.907 6.45 1.496 1.377.32c5.475.866 9.598 8.13 6.147 14.285" fill="#FFF"/><path d="m532.064 204.962-39.133 73.334a5.379 5.379 0 0 1-6.743 2.485l-32.246-14.027-11.93-8.578 23.571-71.679a3.046 3.046 0 0 1 3.725-1.902l55.678 12.907c2.491.394 4.894.7 6.45 1.496 1.862.953 2.507 2.61.628 5.964" fill="#ADCDDB"/><path d="M455.696 232.164c-4.796 1.297-18.244 3.958-21.284-2.427-2.993-6.289-6.797-13.177-8.713-20.262-2.255-8.338-2.064-20.664 7.243-22.965 9.088-2.248 11.85 3.752 13.751 11.904.262 1.122.507 2.252.769 3.373 1.361 5.838 1.62 5.611 2.438 5.4 0 0 7.644-5.09 13.19-6.516 7.638-1.962 12.815 2.1 13.895 7.805 1.132 5.977-2.169 13.343-6.842 16.828-4.152 3.095-9.169 5.432-14.447 6.86Z" fill="url(#G)"/><path d="M432.584 178c-.088-1.237-.406-2.674-.82-4.204-.538-1.985-2.21-5.966-2.767-8.028-1.281-4.74-1.922-7.89 1.88-8.918.859-.232 3.132.072 3.328 2.684.147 1.966 1.112 8.058 1.308 8.005.22-.06.568.085.771.03a.195.195 0 0 0 .13-.099c1.761-3.415.329-9.579 4.393-10.678 1.756-.475 4.23.74 3.349 5.096-.179.884-3.345 16.244-6.899 17.205-1.529.414-3.412-.022-4.673-1.093" fill="#FFF"/><path d="M421.767 179.146c.143.32.255.652.347.99.65 2.4.191 5.177.818 7.495 1.183 4.377 7.346 7.056 13.617 5.36 7.467-2.02 7.574-7.388 10.788-12.007 1.249-1.795 1.459-3.602 1.007-5.27-.999-3.7-5.647-7.04-7.43-6.558-1.247.336-2.659 1.75-2.155 3.608.244.907.884 1.636 1.62 2.239-11.858-6.044-9.787-7.501-12.637-6.73-2.467.667-3.47 3.13-2.848 5.428a3.71 3.71 0 0 0-1.956-.01c-1.575.426-2.39 1.74-1.87 3.664.162.596.429 1.178.699 1.791" fill="#FFF"/><path d="M437.702 266.319c-.41-.46-25.418-12.915-25.418-12.915s-21.9 22.722-27.317 25.327c-5.417 2.603-12.896-6.621-17.008-10.776-4.114-4.156-11.409-14.284-8.907-17.666 2.503-3.382 9.34-4.945 13.001-3.515 3.66 1.43 7.66 3.053 7.66 3.053s14.141-24.04 25.353-25.222c11.212-1.181 47.59 20.159 47.59 20.159l-14.954 21.555" fill="url(#H)"/><path d="M417.534 324.998c1.48 5.47 14.347 3.795 18.174 2.084 3.826-1.713 18.221-11.927 18.29-16.686.067-4.76-2.462-29.136-2.462-29.136s12.693 8.533 21.87 7.405c9.177-1.127 17.535-11.966 19.666-16.606 2.132-4.64 20.282-36.867 21.612-41.968 1.33-5.1-.553-9.558-3.471-12.833-2.917-3.275-34.597-15.248-38.042-15.449-8.135-.473-14.552 6.127-18.329 12.66-1.422 2.46-13.986 29.494-12.154 29.9 0 0-12.266-2.777-18.116 6.48-5.85 9.258-3.292 29.563-1.699 35.454 1.594 5.89 4.25 23.233 4.25 23.233s-11.978 6.626-9.589 15.462Z" fill="url(#I)"/><path d="M496.568 242.178c.093.418.095 5.744.21 6.123 1.616 5.308 1.714 5.347 2.428 8.614.715 3.266 9.255 17.645 9.495 19.196.24 1.551 1.978 3.952 0 5.923-1.976 1.971-2.018 4.155-.627 5.934 1.028 1.316 4.175-1.061 5.742-2.386a.9.9 0 0 1 .355-.186.914.914 0 0 1 1.056.5c1.082 2.35 2.176 4.662 2.493 8.04.26 2.766-1.526 5.053-1.434 7.33.07 1.789 2.993 2.985 4.792.382.762 1.13 4.818 1.238 6.19-1.675l1.366-2.71s5.732-5.565 4.238-11.645c-1.283-5.227-6.073-12.874-6.073-12.874s-1.685-17.293-3.349-22.246c-2.05-6.105-1.567-8.881-3.268-14.337-1.7-5.456-2.232-12.467-4.848-16.167-1.342-1.898-2.872-2.913-4.044-3.452a2.818 2.818 0 0 0-3.083.487l-5.176 4.77c-5.612 5.17-8.128 12.934-6.463 20.379Z" fill="url(#J)"/><path d="M382.351 279.155c-.279.797-2.387-.489-4.735-2.276-.448-.34-.906-.701-1.36-1.069a84.436 84.436 0 0 1-3-2.54 58.474 58.474 0 0 1-1.112-1.012c-.475-.44-.854-.808-1.098-1.067a59.213 59.213 0 0 1-1.58-1.736c-.335-.38-.667-.762-.995-1.147-.77-.905-1.525-1.823-2.277-2.738l-.614-.747c-.097-.12-.196-.237-.294-.356-.619-.745-1.244-1.486-1.85-2.244a41.263 41.263 0 0 1-.928-1.203 25.998 25.998 0 0 1-1.067-1.547c-.195-.309-.423-.666-.65-1.056-.214-.362-.43-.752-.619-1.155-.58-1.222-.95-2.565-.437-3.64.214-.448.652-.723 1.42-.706 1.06.026 2.143.636 3.095 1.343.492.366.947.756 1.348 1.109l.118.104a27.607 27.607 0 0 1 2.339 2.369c.366.412.725.832 1.077 1.254a207.751 207.751 0 0 1 5.2 6.517c.364.478.717.946 1.062 1.407.726.973 1.408 1.91 2.038 2.803.339.48.663.947.972 1.401.59.866 1.124 1.681 1.596 2.436.333.54.638 1.049.908 1.524 1.12 1.97 1.653 3.368 1.443 3.972" fill="url(#K)"/><path d="M502.327 214.163c-8.22 2.224-16.6-.077-22.489-5.383a23.966 23.966 0 0 1-6.902-10.829c-.084-.265-.16-.53-.232-.797-2.642-9.771 1.105-19.763 8.69-25.535a23.835 23.835 0 0 1 4.054-2.494 24.427 24.427 0 0 1 4.268-1.594 24.076 24.076 0 0 1 18.528 2.484 24.12 24.12 0 0 1 7.022 6.227 24.06 24.06 0 0 1 4.072 8.3c3.484 12.878-4.134 26.138-17.011 29.621" fill="#FFF"/><path d="M508.388 199.878c-3.962 10.544-17.556 5.184-30.987.137a32.926 32.926 0 0 1-4.465-2.064 24.19 24.19 0 0 1-1.073-7.392c.085-7.468 3.657-14.47 9.532-18.94a23.835 23.835 0 0 1 4.053-2.494c9.056 1.905 15.025 4.855 18.83 8.299 7.734 7 6.52 16.038 4.11 22.454" fill="url(#L)"/><path d="M502.82 190.41c-3.959 10.536-17.537 5.193-30.957.149.085-7.468 3.657-14.47 9.532-18.94a23.835 23.835 0 0 1 4.053-2.494c9.056 1.905 15.025 4.855 18.83 8.299.95 4.604-.051 9.24-1.458 12.986" fill="url(#M)"/><path d="m519.21 277.78 3.88 7.933c.18.37.556.608.97.61l8.965.07s1.272.083-.743-5.05c-2.36-6.008-3.932-5.961-3.932-5.961s-1.603-.251-5.104.239c-1.004.141-2.556.632-3.54.967a.86.86 0 0 0-.496 1.193" fill="#F2F2F2"/><path d="M513.69 198.888c1.286.667 1.48 2.912.434 5.02-1.045 2.104-2.935 3.271-4.22 2.606-1.284-.667-1.48-2.912-.434-5.02 1.046-2.104 2.935-3.271 4.22-2.606" fill="#422787"/><path d="M409.464 256.915a.617.617 0 0 1-.566-.368c-4.152-9.432-11.17-16.862-19.255-20.384a.618.618 0 0 1 .493-1.132c8.367 3.644 15.618 11.306 19.893 21.017a.617.617 0 0 1-.565.867M432.114 296.705c-2.812 0-5.409-.542-7.767-1.625a.618.618 0 1 1 .516-1.123c3.929 1.805 8.603 1.996 13.893.565 5.515-1.491 10.196-4.333 13.153-6.454a.617.617 0 1 1 .72 1.003c-3.04 2.181-7.857 5.103-13.55 6.643-2.445.662-4.77.991-6.965.991M444.784 236.546a.62.62 0 0 1-.22-.845c.172-.295 1.934-4.129 2.228-3.956 14.156 8.29 26.272 13.428 33.942 16.28 9.495 3.528 15.335 4.758 16.786 4.703.342-.013-.756 3.988-.742 4.33a.618.618 0 0 1-.594.639 4.678 4.678 0 0 1-.143.003c-4.311 0-25.9-6.307-51.257-21.154ZM514.663 197.199a.622.622 0 0 1-.317-.088c-.556-.333-1.135-.476-1.938-.476a.618.618 0 0 1 0-1.235c1.028 0 1.823.201 2.574.651a.618.618 0 0 1-.319 1.148M521.781 208.546c-.677-.508-1.04-1.324-1.027-2.297.013-.9.355-1.842.961-2.649.607-.808 1.417-1.397 2.277-1.66.93-.283 1.816-.161 2.491.347 1.333 1.002 1.363 3.22.066 4.945-.869 1.156-2.115 1.802-3.243 1.802a2.5 2.5 0 0 1-1.525-.488ZM520.15 215.743c-.465 0-.901-.137-1.254-.402-.542-.406-.845-1.083-.834-1.854.01-.711.277-1.453.755-2.088 1.044-1.39 2.717-1.84 3.807-1.02.54.406.845 1.083.834 1.855-.01.71-.278 1.452-.755 2.087-.477.634-1.114 1.098-1.793 1.305a2.604 2.604 0 0 1-.76.117ZM524.813 242.027a.617.617 0 0 1-.55-.898l13.814-27.207a.618.618 0 0 1 1.102.56l-13.814 27.206a.619.619 0 0 1-.552.339M510.65 273.501a.618.618 0 0 1 .114-.866c2.4-1.84 7.19-4.927 12.296-4.927a11.1 11.1 0 0 1 4.095.755c.317.126.348-.086.348.801 0 .888.242 3.53-.075 3.403a9.888 9.888 0 0 0-3.641-.668c-4.742 0-9.269 2.928-11.545 4.672a.613.613 0 0 1-.376.128c-.185 0-1.095-3.138-1.216-3.298ZM460.053 231.899c-.317-.129-7.35-3.975-7.658-4.119a.618.618 0 0 1-.297-.822l5.728-12.213a.617.617 0 0 1 .757-.322l7.496 2.546c.16.055.292.174.364.328a.62.62 0 0 1 .01.49l-5.595 13.772a.617.617 0 0 1-.805.34ZM469.696 236.785c-.317-.127-7.35-3.973-7.658-4.117a.618.618 0 0 1-.297-.822l6.16-13.048a.619.619 0 0 1 .758-.322l7.495 2.547c.161.055.293.173.363.328a.615.615 0 0 1 .01.49l-6.026 14.605a.619.619 0 0 1-.805.34ZM442.45 178.281a.619.619 0 0 1-.378-.129c-1.548-1.196-3.536-3.141-4.205-5.619-.474-1.754.686-3.382 2.82-3.958a5.08 5.08 0 0 1 1.762-.163.618.618 0 1 1-.101 1.23 3.884 3.884 0 0 0-1.338.124c-1.21.328-2.284 1.21-1.95 2.445.58 2.145 2.368 3.884 3.768 4.964a.618.618 0 0 1-.378 1.106" fill="#002D6E"/><path d="M434.864 182.096a.617.617 0 0 1-.519-.953c1.59-2.458 3.77-4.43 6.14-5.556a.618.618 0 0 1 .53 1.117c-2.167 1.027-4.167 2.842-5.633 5.109a.615.615 0 0 1-.518.283M425.172 181.904c-1.179 0-2.341-.46-3.47-1.376a.617.617 0 1 1 .777-.96c1.214.985 2.394 1.303 3.606.975.727-.196 1.232-.538 1.501-1.015.272-.485.307-1.116.1-1.877-.406-1.502-1.866-2.758-3.241-3.789a.618.618 0 0 1 .74-.99c1.622 1.216 3.192 2.597 3.694 4.457.294 1.083.221 2.027-.216 2.804-.43.766-1.211 1.32-2.256 1.603a4.688 4.688 0 0 1-1.235.168" fill="#002D6E"/><path d="M430.999 178.308c-2.179 0-4.559-2.258-6.642-4.54a.616.616 0 1 1 .911-.832c1.152 1.26 4.211 4.61 6.183 4.077.496-.134 1.048-.63 1.405-1.261.241-.43.606-1.3.333-2.311-.464-1.716-2.414-3.359-4.205-4.764a.618.618 0 0 1 .763-.972c2.037 1.597 4.072 3.332 4.635 5.413.287 1.065.127 2.217-.45 3.24-.527.934-1.334 1.624-2.16 1.848a2.96 2.96 0 0 1-.773.102" fill="#002D6E"/><path d="M474.845 194.706a.618.618 0 0 1-.608-.517 19.535 19.535 0 0 1-.26-3.173c0-4.402 1.516-8.74 4.27-12.213a.618.618 0 1 1 .967.767 18.51 18.51 0 0 0-4.001 11.446c0 .992.08 1.991.243 2.973a.618.618 0 0 1-.61.717M480.474 177.347a.618.618 0 0 1-.552-.895c.266-.534.61-.962.942-1.377a.619.619 0 0 1 .964.772c-.304.381-.592.74-.801 1.158a.618.618 0 0 1-.553.342M374.278 215.547a3.978 3.978 0 0 0-3.974 3.973 3.978 3.978 0 0 0 3.974 3.974 3.978 3.978 0 0 0 3.973-3.974 3.978 3.978 0 0 0-3.973-3.973Zm0 9.182a5.214 5.214 0 0 1-5.209-5.209 5.214 5.214 0 0 1 5.209-5.208 5.214 5.214 0 0 1 5.209 5.208 5.214 5.214 0 0 1-5.21 5.209ZM655.939 292.498a3 3 0 1 1-6 0 3 3 0 0 1 6 0" fill="#FFF"/><path d="M628.824 48.014a3 3 0 1 1-6 0 3 3 0 0 1 6 0" stroke="#FFF"/><path d="M812.024 269.907a.617.617 0 0 1-.493-.991c5.192-6.861 9.019-15.408 11.7-26.13a.617.617 0 0 1 1.198.299c-2.722 10.887-6.619 19.58-11.912 26.576a.618.618 0 0 1-.493.246M826.36 230.904a.618.618 0 0 1-.618-.618c0-1.085 0-2.437.465-3.603a.618.618 0 0 1 1.148.459c-.377.944-.377 2.113-.377 3.144 0 .34-.278.618-.618.618M35.122 345.715a.617.617 0 0 1-.437-1.054l61.248-61.249a.617.617 0 1 1 .873.873l-61.248 61.249a.615.615 0 0 1-.436.181M665.633 104.365c-.21 0-.417-.047-.576-.142-.316-.189-.316-.495 0-.683L801.43 22.506c.318-.188.833-.188 1.15 0 .318.189.318.495 0 .683l-136.373 81.034a1.147 1.147 0 0 1-.575.142M691.707 75.179c-.22 0-.44-.054-.608-.161-.336-.214-.336-.562 0-.777l45.28-28.901c.336-.215.879-.215 1.216 0 .336.214.336.562 0 .776l-45.28 28.902c-.166.107-.388.16-.608.16M53.585 308.438a.619.619 0 0 1-.437-1.054l38.642-38.642c.381-.382 1.137-.161 1.084.662L54.02 308.258a.62.62 0 0 1-.436.18M6.986 178.452a.617.617 0 0 1-.58-.828l.023-.064a.617.617 0 1 1 1.162.42l-.024.064a.618.618 0 0 1-.58.408M5.242 183.73a.616.616 0 0 1-.592-.796l.04-.13a.619.619 0 0 1 1.182.357l-.039.129a.618.618 0 0 1-.591.44Zm-1.452 5.366a.617.617 0 0 1-.6-.762l.031-.133a.617.617 0 0 1 1.2.29l-.03.132a.617.617 0 0 1-.6.473Zm-1.15 5.439a.617.617 0 0 1-.608-.729l.024-.134a.618.618 0 0 1 1.215.223l-.024.132a.619.619 0 0 1-.607.508Zm-.84 5.494a.617.617 0 0 1-.614-.693l.017-.136a.619.619 0 0 1 1.225.154l-.017.133a.618.618 0 0 1-.612.542Zm-.526 5.534-.041-.001a.619.619 0 0 1-.576-.658l.009-.136a.618.618 0 0 1 1.233.083l-.01.134a.618.618 0 0 1-.615.578Zm-.206 5.555a.619.619 0 0 1-.618-.623l.001-.136a.617.617 0 1 1 1.235.011v.134a.618.618 0 0 1-.618.614Zm.116 5.557a.618.618 0 0 1-.617-.587l-.006-.136a.617.617 0 0 1 1.234-.06l.006.134a.618.618 0 0 1-.586.648l-.031.001Zm.438 5.54a.618.618 0 0 1-.613-.55l-.015-.137a.617.617 0 1 1 1.229-.13l.014.133a.618.618 0 0 1-.615.685Zm.76 5.506a.618.618 0 0 1-.609-.516l-.022-.135a.616.616 0 1 1 1.218-.201l.022.133a.618.618 0 0 1-.61.719Zm1.075 5.453a.618.618 0 0 1-.602-.482l-.03-.131a.617.617 0 1 1 1.205-.274l.03.132a.618.618 0 0 1-.603.755Zm1.386 5.382a.617.617 0 0 1-.593-.446l-.038-.132a.617.617 0 1 1 1.188-.34l.037.128a.617.617 0 0 1-.594.79Zm1.689 5.295a.617.617 0 0 1-.583-.415l-.045-.127a.617.617 0 1 1 1.166-.408l.045.128a.617.617 0 0 1-.583.822ZM8.491 248.988a.618.618 0 0 1-.571-.383l-.026-.063a.617.617 0 0 1 1.142-.47l.026.064a.617.617 0 0 1-.57.852M246.399 1.636a.618.618 0 0 1-.02-1.235l.136-.004a.619.619 0 0 1 .04 1.234l-.136.005h-.02Zm5.759.061h-.034l-.136-.008a.617.617 0 1 1 .066-1.233l.137.007a.619.619 0 0 1-.033 1.234Zm-11.367.386a.619.619 0 0 1-.077-1.23l.138-.018a.618.618 0 0 1 .151 1.226l-.134.017a.623.623 0 0 1-.078.005Zm16.964.154a.613.613 0 0 1-.084-.006l-.134-.018a.618.618 0 1 1 .166-1.224l.136.018a.618.618 0 0 1-.084 1.23Zm-22.507.808a.619.619 0 0 1-.133-1.22l.136-.03A.617.617 0 1 1 235.516 3l-.133.029a.606.606 0 0 1-.135.015Zm28.045.174a.611.611 0 0 1-.13-.014l-.133-.028a.618.618 0 1 1 .259-1.208l.135.03a.619.619 0 0 1-.13 1.22Zm-33.472 1.304a.618.618 0 0 1-.189-1.205l.132-.043a.617.617 0 1 1 .377 1.176l-.129.042a.62.62 0 0 1-.19.03Zm38.924.087a.617.617 0 0 1-.175-.025l-.13-.038a.618.618 0 0 1 .345-1.186l.133.039a.617.617 0 0 1-.173 1.21Zm5.342 1.764a.612.612 0 0 1-.213-.038l-.128-.047a.618.618 0 1 1 .423-1.16l.13.047a.617.617 0 0 1-.212 1.198Zm-49.53.13a.617.617 0 0 1-.243-1.185l.127-.054a.618.618 0 0 1 .486 1.135l-.125.054a.614.614 0 0 1-.244.05Zm54.748 1.973a.614.614 0 0 1-.248-.053l-.125-.054a.617.617 0 1 1 .495-1.132l.126.056a.617.617 0 0 1-.248 1.183Zm-59.806.484a.618.618 0 0 1-.295-1.16l.122-.067a.618.618 0 1 1 .586 1.088l-.12.064a.612.612 0 0 1-.293.075Zm64.888 1.928a.62.62 0 0 1-.28-.068l-.12-.062a.617.617 0 1 1 .56-1.101l.122.063a.617.617 0 0 1-.282 1.168Zm-69.711.966a.618.618 0 0 1-.34-1.133l.115-.077a.618.618 0 1 1 .678 1.033l-.114.075a.613.613 0 0 1-.34.102Zm74.652 1.726a.62.62 0 0 1-.31-.084l-.116-.068a.617.617 0 1 1 .619-1.07l.118.07a.619.619 0 0 1-.31 1.152Zm-79.217 1.56a.617.617 0 0 1-.38-1.104l.108-.085a.619.619 0 0 1 .759.974l-.107.084a.615.615 0 0 1-.38.131Zm84.009 1.387a.61.61 0 0 1-.336-.1l-.116-.074a.619.619 0 0 1 .674-1.036l.114.075a.616.616 0 0 1-.336 1.135Zm-88.305 2.244a.617.617 0 0 1-.416-1.074l.101-.093a.618.618 0 0 1 .83.915l-.1.091a.618.618 0 0 1-.415.161Zm92.943.939a.617.617 0 0 1-.361-.117l-.11-.08a.617.617 0 1 1 .722-1.002l.111.08a.617.617 0 0 1-.362 1.119Zm4.484 3.398a.615.615 0 0 1-.385-.134l-.107-.085a.618.618 0 0 1 .768-.967l.108.085a.618.618 0 0 1-.384 1.101Zm4.323 3.6a.616.616 0 0 1-.405-.152l-.103-.09a.617.617 0 1 1 .81-.932l.104.09a.618.618 0 0 1-.406 1.084Zm4.163 3.786a.617.617 0 0 1-.426-.17l-.098-.094a.618.618 0 0 1 .85-.896l.1.095a.617.617 0 0 1-.426 1.065Zm134.04 1.855a.617.617 0 0 1-.023-1.235l.139-.005a.618.618 0 0 1 .045 1.234l-.136.006h-.025Zm5.763.014h-.031l-.136-.007a.617.617 0 1 1 .059-1.234l.139.007a.618.618 0 0 1-.03 1.234Zm-11.368.414a.617.617 0 0 1-.069-1.231l.138-.015a.617.617 0 1 1 .137 1.227l-.136.015a.63.63 0 0 1-.07.004Zm16.964.159a.63.63 0 0 1-.097-.008l-.135-.021a.617.617 0 1 1 .19-1.22l.137.02a.619.619 0 0 1-.095 1.229Zm-22.524.674a.617.617 0 0 1-.113-1.225l.136-.025a.617.617 0 1 1 .224 1.215l-.135.024a.612.612 0 0 1-.112.01Zm28.016.524a.614.614 0 0 1-.168-.023l-.13-.036a.617.617 0 0 1 .332-1.19l.133.037a.616.616 0 0 1-.167 1.212Zm-146.894.322a.615.615 0 0 1-.444-.189l-.096-.098a.618.618 0 0 1 .888-.86l.096.1a.618.618 0 0 1-.444 1.047Zm113.385.36a.619.619 0 0 1-.151-1.217l.135-.034a.618.618 0 1 1 .3 1.198l-.132.034a.616.616 0 0 1-.152.019Zm38.813 1.182a.614.614 0 0 1-.241-.05l-.125-.052a.618.618 0 0 1 .479-1.139l.129.055a.617.617 0 0 1-.242 1.186Zm-44.222.358a.62.62 0 0 1-.187-1.207l.132-.042a.617.617 0 0 1 .37 1.179l-.13.04a.619.619 0 0 1-.185.03Zm-5.32 1.83a.617.617 0 0 1-.215-1.197l.129-.047a.617.617 0 1 1 .43 1.158l-.13.047a.608.608 0 0 1-.214.04Zm54.565.337a.61.61 0 0 1-.312-.085l-.117-.068a.618.618 0 1 1 .62-1.068l.121.07a.617.617 0 0 1-.312 1.151Zm-153.395.06a.615.615 0 0 1-.46-.207l-.091-.103a.617.617 0 1 1 .922-.821l.09.103a.616.616 0 0 1-.46 1.028Zm93.598 1.677a.618.618 0 0 1-.239-1.187l.126-.053a.617.617 0 1 1 .478 1.14l-.125.052a.623.623 0 0 1-.24.048Zm64.459 1.404a.617.617 0 0 1-.376-.128l-.107-.082a.618.618 0 0 1 .75-.983l.109.085a.617.617 0 0 1-.376 1.108Zm-69.609.867a.618.618 0 0 1-.258-1.18l.125-.057a.618.618 0 0 1 .516 1.123l-.125.057a.617.617 0 0 1-.258.057Zm-84.797.336a.615.615 0 0 1-.477-.227l-.088-.106a.617.617 0 0 1 .956-.782l.088.107a.619.619 0 0 1-.479 1.008Zm79.715 2.082a.618.618 0 0 1-.272-1.173l.124-.06a.618.618 0 0 1 .542 1.11l-.124.06a.61.61 0 0 1-.27.063Zm78.946.39a.615.615 0 0 1-.43-.173l-.097-.095a.617.617 0 1 1 .856-.89l.1.097a.618.618 0 0 1-.43 1.061Zm-155.188 1.957a.619.619 0 0 1-.489-.238l-.085-.11a.617.617 0 0 1 .977-.756l.083.107a.617.617 0 0 1-.486.997Zm71.206.17a.618.618 0 0 1-.28-1.168l.122-.063a.617.617 0 1 1 .56 1.101l-.123.062a.61.61 0 0 1-.279.067Zm87.812 1.99a.618.618 0 0 1-.473-.22l-.088-.104a.618.618 0 0 1 .944-.797l.09.106a.618.618 0 0 1-.473 1.015Zm-92.824.573a.616.616 0 0 1-.55-.336.616.616 0 0 1 .268-.832l.122-.062a.616.616 0 1 1 .563 1.1l-.122.062a.614.614 0 0 1-.281.068Zm-62.398 1.414a.617.617 0 0 1-.421-.166l-.103-.095a.618.618 0 0 1 .847-.9l.098.092a.618.618 0 0 1-.42 1.07Zm57.38 1.138a.617.617 0 0 1-.277-1.17l.122-.061a.617.617 0 1 1 .554 1.104l-.122.061a.618.618 0 0 1-.277.066Zm-52.986 2.369a.61.61 0 0 1-.346-.107l-.116-.079a.617.617 0 1 1 .697-1.019l.113.077a.62.62 0 0 1-.348 1.128Zm47.928.103a.619.619 0 0 1-.264-1.176l.124-.059a.617.617 0 1 1 .528 1.117l-.125.059a.613.613 0 0 1-.263.06Zm-5.135 2.305a.618.618 0 0 1-.24-1.187l.126-.053a.618.618 0 0 1 .482 1.137l-.127.054a.616.616 0 0 1-.24.049Zm-37.924.402a.615.615 0 0 1-.269-.062l-.125-.06a.617.617 0 1 1 .542-1.11l.121.059a.616.616 0 0 1-.269 1.173Zm32.673 1.618a.617.617 0 0 1-.2-1.202l.129-.045a.617.617 0 1 1 .403 1.168l-.13.045a.621.621 0 0 1-.202.034Zm-27.454.476a.626.626 0 0 1-.191-.03l-.132-.043a.619.619 0 0 1 .384-1.174l.13.042a.617.617 0 0 1-.191 1.205Zm22.056 1.097a.619.619 0 0 1-.14-1.22l.132-.03a.618.618 0 0 1 .285 1.202l-.136.032a.63.63 0 0 1-.141.016Zm-16.605.282a.623.623 0 0 1-.112-.01l-.138-.026a.618.618 0 0 1 .23-1.214l.133.025a.617.617 0 0 1-.113 1.225Zm11.063.627a.617.617 0 0 1-.054-1.233l.133-.012a.618.618 0 1 1 .114 1.23l-.138.013a.636.636 0 0 1-.055.002Zm-5.48.049-.036-.001-.14-.009a.617.617 0 0 1 .076-1.233l.136.008a.618.618 0 0 1-.035 1.235ZM185.937 269.99h-.014l-.136-.004a.618.618 0 0 1 .025-1.235l.138.003a.618.618 0 0 1-.013 1.235Zm-5.764.136a.617.617 0 0 1-.04-1.234l.136-.008a.617.617 0 1 1 .084 1.231l-.136.01-.044.001Zm11.377.254a.628.628 0 0 1-.073-.004l-.135-.016a.617.617 0 0 1 .141-1.227l.139.016a.617.617 0 0 1-.072 1.231Zm-16.966.386a.617.617 0 0 1-.096-1.228l.136-.021a.618.618 0 1 1 .192 1.22l-.134.02a.596.596 0 0 1-.098.009Zm22.514.545a.639.639 0 0 1-.133-.015l-.133-.029a.617.617 0 1 1 .262-1.206l.136.028a.617.617 0 0 1-.132 1.222Zm-28.027.576a.619.619 0 0 1-.148-1.217l.134-.034a.617.617 0 0 1 .295 1.2l-.131.032a.63.63 0 0 1-.15.02Zm33.45.914a.643.643 0 0 1-.195-.031l-.13-.044a.616.616 0 1 1 .388-1.172l.132.044a.616.616 0 0 1-.195 1.203Zm-38.847.674a.618.618 0 0 1-.2-1.2l.132-.046a.618.618 0 1 1 .396 1.17l-.127.043a.607.607 0 0 1-.2.033Zm44.077 1.39a.617.617 0 0 1-.258-.056l-.123-.056a.62.62 0 0 1 .514-1.124l.127.06a.618.618 0 0 1-.26 1.177Zm-49.316.658a.617.617 0 0 1-.25-1.183l.127-.055a.617.617 0 1 1 .497 1.131l-.125.055a.616.616 0 0 1-.249.052Zm54.278 1.988a.62.62 0 0 1-.321-.09l-.115-.071a.618.618 0 1 1 .64-1.056l.119.072a.618.618 0 0 1-.323 1.145Zm-59.319.51a.617.617 0 0 1-.3-1.158l.123-.068a.618.618 0 0 1 .594 1.083l-.12.066a.614.614 0 0 1-.297.077Zm63.932 2.703a.619.619 0 0 1-.383-.134l-.106-.083a.617.617 0 0 1 .764-.97l.11.084a.619.619 0 0 1-.385 1.103Zm-68.726.237a.616.616 0 0 1-.347-1.128l.114-.078a.618.618 0 0 1 .692 1.024l-.113.076a.623.623 0 0 1-.346.106Zm72.92 3.51a.618.618 0 0 1-.433-.177l-.098-.097a.616.616 0 1 1 .865-.88l.097.095a.616.616 0 0 1-.432 1.059Zm4.084 3.873a.61.61 0 0 1-.418-.163l-.101-.092a.618.618 0 0 1 .836-.91l.1.092a.618.618 0 0 1-.417 1.073Zm4.208 3.737a.611.611 0 0 1-.4-.15l-.107-.09a.617.617 0 0 1 .807-.936l.103.09a.619.619 0 0 1-.403 1.086Zm4.325 3.603a.622.622 0 0 1-.389-.137l-.107-.087a.619.619 0 0 1 .777-.96l.107.086a.617.617 0 0 1-.388 1.098Zm4.432 3.47a.613.613 0 0 1-.374-.126l-.11-.084a.618.618 0 0 1 .748-.983l.11.082a.62.62 0 0 1-.374 1.11Zm4.532 3.335a.607.607 0 0 1-.357-.115l-.113-.08a.617.617 0 1 1 .72-1.005l.11.08a.618.618 0 0 1-.36 1.12Zm4.62 3.197a.62.62 0 0 1-.342-.105l-.114-.077a.616.616 0 0 1-.168-.856.616.616 0 0 1 .857-.169l.114.076a.62.62 0 0 1-.346 1.13Zm4.715 3.063a.63.63 0 0 1-.329-.095l-.115-.074a.616.616 0 1 1 .659-1.044l.115.073a.618.618 0 0 1-.33 1.14Zm4.8 2.926a.621.621 0 0 1-.313-.085l-.118-.07a.618.618 0 1 1 .629-1.063l.118.07a.616.616 0 0 1-.316 1.148Zm4.885 2.79a.618.618 0 0 1-.298-.078l-.12-.067a.617.617 0 0 1 .597-1.082l.12.068a.617.617 0 0 1-.299 1.158Zm132.583 1.7a.616.616 0 0 1-.384-1.102l.106-.085a.618.618 0 0 1 .768.967l-.107.085a.612.612 0 0 1-.383.135Zm-127.617.944a.612.612 0 0 1-.282-.069l-.122-.063a.617.617 0 1 1 .566-1.098l.12.063a.619.619 0 0 1-.282 1.167Zm123.1 2.405a.617.617 0 0 1-.351-1.125l.11-.079a.619.619 0 0 1 .706 1.014l-.114.08a.614.614 0 0 1-.351.11Zm-118.058.094c-.089 0-.18-.019-.266-.06l-.123-.059a.618.618 0 0 1 .532-1.114l.124.059c.308.146.439.516.29.823a.616.616 0 0 1-.557.351Zm5.117 2.347a.612.612 0 0 1-.248-.052l-.127-.055a.618.618 0 0 1 .498-1.131l.127.055a.62.62 0 0 1-.25 1.183Zm108.216.613a.617.617 0 0 1-.318-1.147l.117-.07a.618.618 0 0 1 .638 1.056l-.12.071a.607.607 0 0 1-.317.09Zm-103.03 1.578a.621.621 0 0 1-.23-.045l-.127-.052a.617.617 0 1 1 .462-1.145l.128.052a.616.616 0 0 1-.232 1.19Zm98.118 1.161a.62.62 0 0 1-.284-1.168l.12-.062a.617.617 0 0 1 .57 1.097l-.124.063a.614.614 0 0 1-.282.07Zm-92.862.865a.612.612 0 0 1-.212-.039l-.13-.048a.616.616 0 1 1 .427-1.158l.128.047a.619.619 0 0 1-.213 1.198Zm87.784 1.547a.618.618 0 0 1-.247-1.183l.123-.055a.617.617 0 0 1 .497 1.132l-.126.055a.632.632 0 0 1-.247.05Zm-82.464.307a.634.634 0 0 1-.193-.031l-.132-.044a.617.617 0 1 1 .388-1.172l.13.042a.617.617 0 0 1-.193 1.205Zm5.38 1.673a.634.634 0 0 1-.174-.024l-.133-.039a.618.618 0 0 1 .349-1.186l.13.039a.617.617 0 0 1-.173 1.21Zm71.86.102a.618.618 0 0 1-.21-1.2l.128-.045a.617.617 0 1 1 .421 1.161l-.129.047a.627.627 0 0 1-.21.037Zm-66.424 1.382a.58.58 0 0 1-.153-.02l-.134-.032a.62.62 0 0 1 .305-1.198l.133.034a.618.618 0 0 1-.151 1.216Zm61.078.365a.618.618 0 0 1-.174-1.21l.13-.039a.617.617 0 1 1 .35 1.185l-.133.038a.588.588 0 0 1-.173.026Zm-55.591.92a.61.61 0 0 1-.13-.014l-.135-.029a.619.619 0 0 1 .26-1.208l.134.03a.617.617 0 0 1-.129 1.222Zm50.146.494a.618.618 0 0 1-.137-1.22l.133-.03a.619.619 0 0 1 .276 1.203l-.134.032a.592.592 0 0 1-.138.015Zm-44.613.579a.55.55 0 0 1-.106-.01l-.137-.023a.618.618 0 1 1 .212-1.217l.135.023a.618.618 0 0 1-.104 1.227Zm39.093.51a.618.618 0 0 1-.101-1.227l.134-.023a.618.618 0 0 1 .206 1.219l-.137.022a.646.646 0 0 1-.102.008Zm-33.522.338a.8.8 0 0 1-.081-.004l-.138-.02a.616.616 0 1 1 .162-1.223l.136.017a.618.618 0 0 1-.08 1.23Zm27.947.434a.617.617 0 0 1-.067-1.233l.137-.015a.62.62 0 0 1 .136 1.229l-.137.015a.576.576 0 0 1-.07.004Zm-22.345.18a.7.7 0 0 1-.055-.003l-.138-.012a.617.617 0 1 1 .11-1.23l.135.01a.617.617 0 0 1-.052 1.235Zm16.737.285a.618.618 0 0 1-.035-1.234l.136-.008a.618.618 0 0 1 .073 1.234l-.139.008h-.035Zm-11.115.076h-.026l-.137-.006a.62.62 0 0 1-.592-.644.616.616 0 0 1 .644-.59l.137.006a.617.617 0 0 1-.026 1.234Zm5.489.098a.617.617 0 0 1-.003-1.235l.137-.001a.618.618 0 0 1 .008 1.235l-.138.001h-.004Z" fill="#FFF"/><path d="M622.048 69.732a.615.615 0 0 1-.483-.233l-.087-.108a.617.617 0 1 1 .968-.768l.085.107a.62.62 0 0 1-.483 1.002Zm3.678 4.255a.614.614 0 0 1-.45-.195l-.095-.101a.618.618 0 1 1 .903-.844l.092.1a.618.618 0 0 1-.45 1.04Zm4.019 3.942a.615.615 0 0 1-.415-.16l-.103-.092a.618.618 0 1 1 .83-.916l.102.092a.618.618 0 0 1-.414 1.076Zm140.315 3.184h-.019l-.136-.005a.618.618 0 1 1 .037-1.235l.138.005a.618.618 0 0 1-.02 1.235Zm-5.761.019a.618.618 0 0 1-.022-1.235l.138-.005a.619.619 0 0 1 .041 1.235l-.136.005h-.021Zm-5.618.35a.617.617 0 0 1-.054-1.234l.139-.012a.617.617 0 1 1 .107 1.231l-.137.012a.668.668 0 0 1-.055.002Zm16.989.02a.613.613 0 0 1-.067-.003l-.135-.015a.618.618 0 1 1 .13-1.228l.136.014a.618.618 0 0 1-.065 1.232Zm-141.595.022a.616.616 0 0 1-.373-.127l-.11-.084a.617.617 0 1 1 .75-.981l.108.083a.618.618 0 0 1-.375 1.109Zm119.013.58a.62.62 0 0 1-.612-.536.62.62 0 0 1 .53-.693l.138-.019a.618.618 0 0 1 .162 1.225l-.136.018a.613.613 0 0 1-.082.005Zm28.143.217a.615.615 0 0 1-.114-.011l-.134-.025a.618.618 0 0 1 .225-1.215l.137.026a.617.617 0 0 1-.114 1.225Zm-33.707.634a.619.619 0 0 1-.103-1.226l.136-.023a.618.618 0 0 1 .207 1.217l-.135.024a.636.636 0 0 1-.105.008Zm39.186.623a.616.616 0 0 1-.162-.022l-.131-.035a.618.618 0 1 1 .322-1.193l.133.037a.617.617 0 0 1-.162 1.213Zm-44.719.413a.619.619 0 0 1-.122-1.223l.136-.028a.618.618 0 0 1 .244 1.211l-.135.027a.618.618 0 0 1-.123.013Zm-103.301.754a.615.615 0 0 1-.333-.097l-.116-.075a.618.618 0 0 1 .667-1.04l.114.074a.617.617 0 0 1-.332 1.138Zm97.797.424a.617.617 0 0 1-.136-1.22l.135-.03a.618.618 0 0 1 .272 1.205l-.134.03a.632.632 0 0 1-.137.015Zm55.583.109a.62.62 0 0 1-.211-.037l-.128-.047a.617.617 0 0 1 .42-1.162l.13.048a.618.618 0 0 1-.21 1.198Zm-61.063 1.175a.618.618 0 0 1-.144-1.218l.133-.032a.618.618 0 0 1 .29 1.2l-.132.033a.635.635 0 0 1-.147.017Zm66.264.962a.615.615 0 0 1-.258-.056l-.124-.057a.618.618 0 0 1 .515-1.123l.126.057a.618.618 0 0 1-.26 1.18Zm-153.72.161a.614.614 0 0 1-.288-.071l-.122-.066a.617.617 0 1 1 .579-1.09l.12.064a.618.618 0 0 1-.289 1.163Zm81.993.23a.618.618 0 0 1-.15-1.217l.132-.033a.617.617 0 1 1 .302 1.197l-.133.034a.62.62 0 0 1-.15.019Zm-5.454 1.384a.618.618 0 0 1-.153-1.216l.133-.034a.618.618 0 0 1 .305 1.197l-.133.034a.612.612 0 0 1-.152.02Zm82.186.789a.615.615 0 0 1-.303-.08l-.12-.067a.617.617 0 1 1 .607-1.077l.12.068a.617.617 0 0 1-.304 1.156Zm-153.65.027a.616.616 0 0 1-.245-.05l-.128-.056a.617.617 0 1 1 .492-1.133l.123.053a.617.617 0 0 1-.243 1.186Zm66.007.564a.617.617 0 0 1-.15-1.216l.133-.034a.618.618 0 0 1 .3 1.199l-.133.033a.633.633 0 0 1-.15.018Zm-5.469 1.337a.618.618 0 0 1-.141-1.218l.133-.032a.618.618 0 0 1 .286 1.202l-.133.032a.622.622 0 0 1-.145.016Zm-55.292.121a.612.612 0 0 1-.199-.033l-.13-.045a.618.618 0 1 1 .4-1.168l.13.044a.618.618 0 0 1-.2 1.202Zm153.178.923a.617.617 0 0 1-.347-.107l-.113-.077a.618.618 0 0 1 .694-1.022l.114.078a.618.618 0 0 1-.348 1.128Zm-103.373.207a.618.618 0 0 1-.13-1.221l.133-.03a.618.618 0 0 1 .263 1.208l-.134.03a.643.643 0 0 1-.132.013Zm-44.417.487a.615.615 0 0 1-.156-.02l-.134-.035a.618.618 0 0 1 .313-1.195l.132.034a.617.617 0 0 1-.155 1.216Zm38.9.63a.617.617 0 0 1-.112-1.226l.134-.025a.618.618 0 1 1 .227 1.214l-.136.026a.6.6 0 0 1-.112.01Zm-33.409.585a.601.601 0 0 1-.113-.01l-.135-.025a.616.616 0 1 1 .225-1.215l.134.025a.618.618 0 0 1-.111 1.225Zm27.858.339a.618.618 0 0 1-.088-1.23l.135-.019a.619.619 0 0 1 .18 1.223l-.138.02a.61.61 0 0 1-.089.006Zm-22.297.485a.665.665 0 0 1-.07-.004l-.135-.016a.617.617 0 1 1 .14-1.227l.134.015a.618.618 0 0 1-.069 1.232Zm16.71.18a.617.617 0 0 1-.055-1.232l.136-.012a.619.619 0 0 1 .113 1.23l-.137.012a.622.622 0 0 1-.057.003Zm-11.103.26h-.029l-.137-.007a.617.617 0 1 1 .058-1.234l.134.006a.617.617 0 0 1-.026 1.235Zm5.488.068a.618.618 0 0 1-.014-1.235l.136-.003a.619.619 0 0 1 .03 1.235l-.139.003h-.013Zm130.154.118a.614.614 0 0 1-.388-.138l-.106-.086a.617.617 0 1 1 .777-.96l.107.087a.618.618 0 0 1-.39 1.097Zm4.22 3.72a.617.617 0 0 1-.427-.172l-.098-.094a.617.617 0 1 1 .852-.893l.1.096a.617.617 0 0 1-.426 1.063Zm3.901 4.053c-.17 0-.34-.07-.462-.207l-.09-.102a.619.619 0 0 1 .923-.822l.092.104a.619.619 0 0 1-.463 1.027Zm3.558 4.359a.618.618 0 0 1-.494-.247l-.082-.109a.618.618 0 0 1 .986-.744l.084.111a.618.618 0 0 1-.494.989Zm3.191 4.634a.614.614 0 0 1-.523-.288l-.073-.116a.618.618 0 1 1 1.044-.66l.074.117a.62.62 0 0 1-.522.947Zm2.797 4.882a.618.618 0 0 1-.549-.334l-.063-.12a.618.618 0 0 1 1.096-.571l.064.123a.617.617 0 0 1-.548.902Zm2.376 5.099a.617.617 0 0 1-.57-.38l-.052-.127a.618.618 0 1 1 1.14-.476l.053.128a.619.619 0 0 1-.57.855Zm1.926 5.287a.619.619 0 0 1-.589-.433l-.041-.13a.618.618 0 1 1 1.177-.372l.042.13a.618.618 0 0 1-.59.805Zm1.435 5.439a.62.62 0 0 1-.603-.489l-.03-.133a.618.618 0 0 1 1.209-.26l.028.135a.617.617 0 0 1-.604.747Zm.902 5.552a.616.616 0 0 1-.612-.55l-.015-.134a.617.617 0 1 1 1.227-.14l.015.139a.617.617 0 0 1-.615.685Zm.319 5.615a.617.617 0 0 1-.618-.618l-.001-.134a.618.618 0 1 1 1.235-.004l.001.138a.618.618 0 0 1-.617.618Zm-.315 5.615a.617.617 0 0 1-.615-.688l.016-.134a.618.618 0 0 1 1.227.137l-.016.137a.617.617 0 0 1-.612.548Zm-.973 5.54a.618.618 0 0 1-.601-.762l.032-.132a.617.617 0 1 1 1.202.283l-.032.135a.62.62 0 0 1-.6.475Zm-1.639 5.377a.617.617 0 0 1-.578-.833l.047-.127a.617.617 0 1 1 1.159.428l-.048.13a.617.617 0 0 1-.58.402Zm-2.288 5.137a.617.617 0 0 1-.548-.903l.064-.12a.617.617 0 1 1 1.097.568l-.064.122a.62.62 0 0 1-.549.333Zm-2.894 4.82a.618.618 0 0 1-.51-.966l.077-.111a.618.618 0 0 1 1.021.694l-.078.114a.614.614 0 0 1-.51.27Z" fill="#FFF"/></g><path stroke="#FFF" d="M168 116v21M239 116v21M184 101h40"/><g transform="translate(165 98)"><path d="M3.054 39.11c0-19.836 15.868-35.915 35.443-35.915 19.575 0 35.444 16.08 35.444 35.914" stroke="#FFF"/><mask id="O" fill="#fff"><use xlink:href="#N"/></mask><path fill="#9578D2" mask="url(#O)" d="M.35 41.417h5.408v-5.479H.35z"/><path stroke="#FFF" stroke-width="2" mask="url(#O)" d="M.35 41.417h5.408v-5.479H.35z"/><path fill="#9578D2" mask="url(#O)" d="M71.237 41.849h5.407V36.37h-5.407z"/><path stroke="#FFF" mask="url(#O)" d="M71.237 41.849h5.407V36.37h-5.407z"/><path fill="#9578D2" mask="url(#O)" d="M35.793 5.934h5.408V.455h-5.408z"/><path stroke="#FFF" mask="url(#O)" d="M35.793 5.934h5.408V.455h-5.408z"/><path fill="#FFF" mask="url(#O)" d="M1.42 19.8h3.268v-3.311H1.42zM16.757 4.72h3.268V1.409h-3.268zM56.97 4.72h3.267V1.409H56.97zM72.307 19.67h3.267v-3.311h-3.267z"/></g><path d="m808.019 286.298 2.09-4.599v-.602H807v.58h2.513v.05l-2.11 4.57h.616Zm4.551.122c.96 0 1.615-.735 1.615-1.805 0-1.031-.65-1.716-1.439-1.716-.469 0-.817.159-1.045.472h-.052l.147-1.694h2.148v-.58h-2.607l-.27 2.973h.55a1.05 1.05 0 0 1 .983-.612c.592 0 1 .472 1 1.175 0 .728-.408 1.218-1.023 1.218-.553 0-.957-.371-1.01-.926h-.576c.053.89.69 1.495 1.58 1.495Zm3.27-2.97c.634 0 1.018-.457 1.018-1.225 0-.757-.387-1.222-1.019-1.222-.631 0-1.022.465-1.022 1.222 0 .764.384 1.226 1.022 1.226Zm.21 2.848 3.247-5.2h-.53l-3.247 5.2h.53Zm-.21-3.32c-.33 0-.518-.273-.518-.75 0-.471.188-.749.517-.749.326 0 .515.278.515.75s-.186.75-.515.75Zm3.141 3.37c.635 0 1.019-.458 1.019-1.225 0-.757-.387-1.222-1.019-1.222-.632 0-1.022.465-1.022 1.222 0 .764.387 1.225 1.022 1.225Zm0-.472c-.329 0-.514-.274-.514-.75 0-.472.185-.75.514-.75s.514.278.514.75-.185.75-.514.75Z" fill="#FFF" fill-rule="nonzero"/><g transform="translate(755 282.087)"><mask id="Q" fill="#fff"><use xlink:href="#P"/></mask><use fill="#DADDE2" xlink:href="#P"/><g mask="url(#Q)" fill="#14C684"><path d="M0 0h35.75v3.25H0z"/></g></g><g transform="translate(201 168)"><path fill="#000" d="M5 17h8v8H5z"/><path fill="#7D58FF" d="M5 26h8v8H5z"/><path fill="#9E247B" d="M32 26h8v8h-8z"/><path fill="#FFF" d="M14 17h8v8h-8z"/><path fill="#3D52FF" d="M14 26h8v8h-8z"/><path fill="#FFCD00" d="M41 26h8v8h-8z"/><path stroke="#000" fill="#FFF" d="M23.5 17.5h7v7h-7z"/><path stroke="#9E247B" d="M24 23.716 30.716 17"/><path fill="#00D7BD" d="M23 26h8v8h-8z"/><rect stroke="#FFF" x=".5" y=".5" width="75" height="40" rx="6"/><path d="M6 0h64a6 6 0 0 1 6 6v6H0V6a6 6 0 0 1 6-6Z" fill="#A187FF"/><circle fill="#FFCD00" cx="6" cy="6" r="2"/><circle fill="#F8F7FF" cx="11" cy="6" r="2"/><circle fill="#14C684" cx="16" cy="6" r="2"/></g><path fill="#CBBCFF" d="m401.935 151.23-17.685-.37-9.162-15.13 17.662.409z"/><path fill="#7D58FF" d="m376.678 165.326-9.707-15.185 8.351-14.466 9.708 15.186z"/><path fill="#8A69FF" d="m375.822 164.326 18.005.814 8.351-14.465-18.005-.815z"/><path fill="#CBBCFF" d="M78.535 236.486 66 236.196l-6.518-10.71 12.518.318z"/><path fill="#7D58FF" d="m60.764 245.544-6.54-10.673 6.013-10.415 6.54 10.673z"/><path fill="#8A69FF" d="m60.237 246.044 12.513.327 6.014-10.415-12.514-.327z"/><g fill-rule="nonzero"><path d="m21.995 0 22.172 12.13-21.992 12.284L0 12.28z" transform="rotate(-10 2002.85 -3594.232)" fill="url(#R)"/><path d="m700.162 297.463.364 2.065-19.524 15.916-.365-2.065z" fill="#724BFD"/><path d="m680.638 313.379.364 2.067-23.945-8.098-.364-2.067z" fill="#BEADFA"/><path d="m21.995 0 22.172 12.13-21.992 12.284L0 12.28z" fill="url(#S)" transform="rotate(-10 1967.966 -3593.342)"/><path d="m699.478 291.419.364 2.065-19.525 15.916-.364-2.065z" fill="#724BFD"/><path d="m679.953 307.334.365 2.068-23.945-8.098-.365-2.068z" fill="#BEADFA"/><g><path d="m9.648 0 9.727 5.875-9.647 5.95L0 5.948z" transform="rotate(-10 1952.478 -3729.584)" fill="url(#T)"/><path d="m697.398 284.805.433 2.454-8.467 7.534-.433-2.453z" fill="#724BFD"/><path d="m688.932 292.339.433 2.456-10.601-4.097-.433-2.457z" fill="#BEADFA"/></g><g><path d="m9.648 0 9.727 5.875-9.647 5.95L0 5.948z" transform="rotate(-10 1989.943 -3666.387)" fill="url(#U)"/><path d="m686.993 292.27.433 2.455-8.467 7.534-.433-2.454z" fill="#724BFD"/><path d="m678.527 299.805.433 2.456-10.601-4.098-.433-2.456z" fill="#BEADFA"/></g><g><path d="m9.648 0 9.727 5.875-9.647 5.95L0 5.948z" fill="url(#V)" transform="rotate(-10 1962.52 -3594.929)"/><path d="m674.168 288.594.433 2.454-8.467 7.534-.433-2.453z" fill="#724BFD"/><path d="m665.701 296.128.433 2.456-10.6-4.097-.433-2.456z" fill="#BEADFA"/></g><g><path d="m9.648 0 9.727 5.875-9.647 5.95L0 5.948z" fill="url(#U)" transform="rotate(-10 1913.694 -3659.723)"/><path d="m684.678 279.131.433 2.455-8.468 7.533-.432-2.453z" fill="#724BFD"/><path d="m676.211 286.665.433 2.457-10.6-4.098-.434-2.456z" fill="#BEADFA"/></g></g><g fill-rule="nonzero"><path d="M211.619 354c-.187 0-.351-.003-.489-.009a3.216 3.216 0 0 1-.975-.145c-.01-.005-.98-.477-1.311-.858L205 348.564l1.898-1.845 3.92-3.812a9.266 9.266 0 0 0 1.775 1.529h.002a9.66 9.66 0 0 0 3.446 1.413 9.868 9.868 0 0 0 4.633-.168l-.005.002.005-.002c2.799-.78 5.059-2.742 6.12-5.314v-.001c.186-.453.333-.92.44-1.395a8.468 8.468 0 0 0-.806-5.881 9.083 9.083 0 0 0-2.5-2.93l.828-.804c1.37.399 2.705.9 3.99 1.5a19.84 19.84 0 0 1 3.735 2.25c2.555 1.987 4.075 4.399 4.518 7.169a2.659 2.659 0 0 1-.605 1.758l-8.734 10.688a2.972 2.972 0 0 1-2.254 1.068l-12.44.176c-.007 0-.71.035-1.347.035Zm25.38-13.728c-.443-2.77-1.963-5.18-4.518-7.166a19.838 19.838 0 0 0-3.734-2.25 27.91 27.91 0 0 0-3.99-1.5l5.454-5.303.055-.053.72.315.948.416c.801.352 1.39 1.03 1.6 1.843l3.385 13.126c.048.187.075.379.08.572Z" fill="#724BFD"/><path d="M32.793 22.43c-7.247-4.926-16.674.825-20.562 4.29a9.097 9.097 0 0 1 5.722-2.014 9.2 9.2 0 0 1 1.484.12c4.718.525 13.885 3.19 16.39 10.201l-2.681-11.74a2.815 2.815 0 0 0-.353-.857Z" fill="url(#W)" transform="rotate(102.007 -4.995 266.125)"/><path d="M5.788 30.676 1.98 26.178l-.244-.289a11.126 11.126 0 0 1-.39-.506 2.703 2.703 0 0 1-.36-2.028l2.72-12.429.204-.937c.182-.827.74-1.53 1.52-1.908l11.877-5.77.007-.004.603-.292c.134-.061.277-.122.424-.181a2.943 2.943 0 0 1 2.154.098l11.828 5.324-.024-.01.02.008.005.002.934.42c.24.109.464.249.665.417L27.9 12.928a29.856 29.856 0 0 0-3.699-1.1 27.696 27.696 0 0 0-3.175-.544 9.61 9.61 0 0 0-1.502-.118 9.453 9.453 0 0 0-3.385.623c-3.759 1.435-6.137 5.06-5.888 8.975a8.88 8.88 0 0 0 1.84 4.852l-4.878 3.916-1.425 1.144ZM28.593 6.492Zm-2.18 7.63a9.322 9.322 0 0 0-5.387-2.838 27.7 27.7 0 0 1 3.175.543 29.86 29.86 0 0 1 3.699 1.101l-1.487 1.194Z" fill="url(#X)" transform="translate(198.077 316.324)"/><path d="M17.566 11.364a9.158 9.158 0 0 1 .38 7.914c-1.661 4.6-6.604 13.213-14.356 13.597h12.851c.72 0 1.412-.276 1.934-.771.146-.158.287-.32.42-.482l.236-.296c4.83-6.298 1.123-15.739-1.465-19.962Z" fill="url(#Y)" transform="rotate(102.007 -16.539 260.472)"/><path d="M22.993 7.295a9.157 9.157 0 0 1-5.96 5.238c-4.67 1.578-14.61 3.087-19.703-2.906l8.14 10.207a2.813 2.813 0 0 0 2.198 1.059h.969c7.753-.384 12.694-8.997 14.356-13.598Z" fill="url(#Z)" transform="rotate(102.007 -18.862 252.446)"/><path d="M31.1 21.223a9.154 9.154 0 0 1-7.77-1.37c-4.104-2.626-11.425-9.355-10.102-17.001l-2.85 12.487a2.814 2.814 0 0 0 .342 2.09c.087.125.176.249.266.369l.413.518C16.49 24.31 26.43 22.8 31.1 21.223Z" fill="url(#aa)" transform="rotate(102.007 -8.32 251.095)"/><path d="M29.338 26.852a9.124 9.124 0 0 1-3.81-6.99c-.514-5.152.36-16.053 8.465-19.1a2.81 2.81 0 0 0-.56.2l-12.45 5.996a2.814 2.814 0 0 0-1.522 1.907l-.225.986c-1.323 7.647 5.998 14.376 10.102 17.001Z" fill="url(#ab)" transform="rotate(102.007 -2.488 252.16)"/><path d="M15.795 34.803a9.118 9.118 0 0 1 3.402-7.562c3.888-3.466 13.315-9.218 20.562-4.29A2.811 2.811 0 0 0 38.59 21.9l-12.45-5.997a2.81 2.81 0 0 0-1.882-.199c-8.103 3.045-8.978 13.947-8.463 19.099Z" fill="url(#ac)" transform="rotate(102.007 -1.306 263.566)"/><path d="M5.64 17.252a9.144 9.144 0 0 1 6.551 4.665c2.588 4.224 6.296 13.664 1.464 19.963l8.226-10.315c.533-.669.733-1.544.543-2.378l-.395-1.732c-2.505-7.012-11.67-9.678-16.39-10.203Z" fill="url(#ad)" transform="rotate(102.007 -14.956 267.919)"/></g><g fill-rule="nonzero"><path fill="url(#ae)" d="m41.601 3.124 19.118 10.681-40.885 23.319L.719 26.443z" transform="translate(684.281 79.876)"/><path d="M745 93v3.536L705 119v-3.536z" fill="#724BFD"/><path d="M705 115.43V119l-20-10.43V105z" fill="#BEADFA"/><path d="M18.774 0 37.7 10.412 18.928 20.957 0 10.542z" fill="url(#af)" transform="translate(707 117)"/><path d="M744.7 127.413v3.743L725.927 141.7v-3.744z" fill="#724BFD"/><path d="M725.928 137.957v3.743L707 131.285v-3.743z" fill="#BEADFA"/><g><path d="m18.709 0 18.86 10.295-18.707 10.426L0 10.424z" fill="url(#ag)" transform="translate(727 80)"/><path d="M764.569 90.295v3.701l-18.706 10.426v-3.703z" fill="#724BFD"/><path d="M745.862 100.72v3.702L727 94.125v-3.701z" fill="#BEADFA"/></g></g><g transform="translate(606 104)"><mask id="ai" fill="#fff"><use xlink:href="#ah"/></mask><g mask="url(#ai)" fill="#7D58FF"><path d="M0 0h16v16H0z"/></g><mask id="ak" fill="#fff"><use xlink:href="#aj"/></mask><g mask="url(#ak)" fill="#7D58FF"><path d="M0 0h16v16H0z"/></g><mask id="am" fill="#fff"><use xlink:href="#al"/></mask><g mask="url(#am)" fill="#FFF"><path d="M0 0h16v16H0z"/></g></g><g><g transform="translate(651 147)"><mask id="ap" fill="#fff"><use xlink:href="#ao"/></mask><g mask="url(#ap)" fill="#FFF"><path d="M0 0h25v25H0z"/></g></g></g><g fill="#340078"><path d="M554.485 295.42a.703.703 0 0 0-.555.825l.268 1.38a.703.703 0 0 0 1.188.36l-.77-.519.393-.582.549.37-.249-1.278a.703.703 0 0 0-.823-.556ZM549.689 290.984l-.69.134.537 2.76.69-.135a.703.703 0 0 0 .555-.823l-.268-1.38a.702.702 0 0 0-.823-.556h-.001Z"/><path d="m556.595 298.801-.621-.419a1.405 1.405 0 0 1-2.466-.624l-.268-1.38a1.406 1.406 0 1 1 2.76-.536l.267 1.38c.033.169.035.343.004.513l.717.484-.393.582Zm-4.057-6.044a1.23 1.23 0 0 1 .973-1.442l.345-.067a.527.527 0 1 0-.201-1.034l-1.552.302-.134-.691 1.552-.302a1.23 1.23 0 1 1 .47 2.415l-.345.067a.527.527 0 0 0-.417.617l.1.518 2.067-.402.134.69-2.76.536-.232-1.207Zm-1.067.028c.148.762-.35 1.5-1.112 1.648l-1.38.268-.804-4.139 1.38-.268c.762-.148 1.5.35 1.648 1.111l.268 1.38Zm.603 3.104-1.034.201.537 2.76 1.034-.201.134.69-2.76.536-.134-.69 1.034-.201-.536-2.76-1.034.202-.134-.69 2.76-.537.133.69Zm-4.857 6.314 12.76-2.481-2.48-12.761-12.76 2.48 2.48 12.762Z"/></g><g transform="translate(160 242)"><rect stroke="#FFF" fill-opacity=".22" fill="#7D58FF" x=".5" y=".5" width="75" height="27" rx="4"/><rect fill="url(#aq)" x="8" y="11" width="36" height="7" rx="1"/><use fill="#FFF" transform="matrix(1 0 0 -1 0 31)" xlink:href="#ar"/></g><g><path stroke="#FC0" stroke-dasharray="3,2" d="m708 367 19-19"/><path stroke="#FFF" d="M730 364h-19v-19"/><path stroke="#FFF" d="M706 350h19v19"/></g><g transform="translate(754 221)"><path d="M0 12h67v35a6 6 0 0 1-6 6H6a6 6 0 0 1-6-6V12Z" fill="#200038"/><path fill="#D8D8D8" d="M5 17h24v2H5zM12 29h24v2H12zM5 29h2v2H5zM5 33h2v2H5zM5 37h2v2H5zM5 41h2v2H5zM20 21h24v2H20zM14 25h12v2H14zM28 33h18v2H28zM28 25h34v2H28z"/><path fill="#14C684" d="M5 21h13v2H5zM5 25h7v2H5zM12 33h14v2H12zM12 37h6v2h-6zM12 41h6v2h-6z"/><path fill="#7D58FF" d="M31 17h6v2h-6zM38 29h6v2h-6z"/><rect stroke="#FFF" x=".5" y=".5" width="66" height="52" rx="6"/><circle fill="#FFCD00" cx="6" cy="6" r="2"/><circle fill="#6236FF" cx="11" cy="6" r="2"/><circle fill="#14C684" cx="16" cy="6" r="2"/><path stroke="#FFF" d="M1.016 11.787h65.198"/></g><g transform="rotate(-30 433.972 -103.825)" fill-rule="nonzero"><path d="M9.32 24.004a6.59 6.59 0 0 0-6.59 6.591l.002.08-.002.08.002.08-.002.08.002.08-.002.08.002.08-.002.08.002.08-.002.08.002.08-.002.08.002.08-.002.08.002.08-.002.08.002.081-.002.08.002.08-.002.08.002.08-.002.08a6.59 6.59 0 0 0 13.181 0l-.002-.08.002-.08-.002-.08.002-.08-.002-.08.002-.08-.002-.08.002-.08-.002-.08.002-.08-.002-.08.002-.08-.002-.08.002-.08-.002-.08.002-.08-.002-.08.002-.08-.002-.08.002-.08-.002-.081.002-.08a6.59 6.59 0 0 0-6.59-6.59ZM42.752 30.675l.002-.08a6.59 6.59 0 0 0-13.182 0l.002.08-.002.08.002.08-.002.08.002.08-.002.08.002.08-.002.08.002.08-.002.08.002.08-.002.08.002.08-.002.08.002.08-.002.08.002.081-.002.08.002.08-.002.08.002.08-.002.08a6.59 6.59 0 0 0 13.182 0l-.002-.08.002-.08-.002-.08.002-.08-.002-.08.002-.08-.002-.08.002-.08-.002-.08.002-.08-.002-.08.002-.08-.002-.08.002-.08-.002-.08.002-.08-.002-.08.002-.08-.002-.08.002-.08-.002-.081Z" fill="#724BFD"/><path fill="#BAA6FF" d="m22.597 23.688.459.965L9.55 31.077l-.459-.965z"/><path fill="#BAA6FF" d="m23.361 16.785-.001 7.048 13.066 6.28-.462.963-13.672-6.571v-7.72z"/><circle fill="url(#as)" transform="rotate(-135 9.32 30.55)" cx="9.321" cy="30.551" r="6.591"/><circle fill="url(#as)" transform="rotate(-135 36.122 30.55)" cx="36.122" cy="30.551" r="6.591"/><path d="M22.91 2.73a6.59 6.59 0 0 0-6.591 6.59l.002.08-.002.08.002.08-.002.08.002.08-.002.081.002.08-.002.08.002.08-.002.08.002.08-.002.08.002.08-.002.08.002.08-.002.08.002.08-.002.08.002.08-.002.081.002.08-.002.08a6.591 6.591 0 1 0 13.182 0c0-.027-.002-.053-.003-.08 0-.027.003-.053.003-.08 0-.027-.002-.053-.003-.08 0-.027.003-.053.003-.08 0-.027-.002-.054-.003-.08 0-.027.003-.053.003-.08 0-.027-.002-.054-.003-.08 0-.027.003-.054.003-.08 0-.027-.002-.054-.003-.08 0-.027.003-.054.003-.08 0-.028-.002-.054-.003-.08 0-.028.003-.054.003-.08 0-.028-.002-.054-.003-.08 0-.027.003-.054.003-.08 0-.028-.002-.054-.003-.08 0-.028.003-.054.003-.08 0-.028-.002-.054-.003-.081 0-.027.003-.053.003-.08 0-.027-.002-.053-.003-.08 0-.027.003-.053.003-.08 0-.027-.002-.054-.003-.08 0-.027.003-.054.003-.08A6.59 6.59 0 0 0 22.91 2.73Z" fill="#724BFD"/><circle fill="url(#as)" transform="rotate(-135 22.92 9.32)" cx="22.92" cy="9.321" r="6.591"/></g><g fill="#FFF"><path d="M814.5 164.143c.67 0 1.214.544 1.214 1.214v2.429a1.214 1.214 0 1 1-2.428 0v-2.429c0-.67.543-1.214 1.214-1.214Zm-2.576-1.067a1.214 1.214 0 0 1 0 1.717l-1.717 1.717a1.214 1.214 0 1 1-1.717-1.717l1.717-1.717a1.214 1.214 0 0 1 1.717 0Zm6.87 0 1.716 1.717a1.214 1.214 0 1 1-1.717 1.717l-1.717-1.717a1.214 1.214 0 1 1 1.717-1.717Zm-9.151-3.79a1.214 1.214 0 1 1 0 2.428h-2.429a1.214 1.214 0 0 1 0-2.428h2.429Zm12.143 0a1.214 1.214 0 1 1 0 2.428h-2.429a1.214 1.214 0 1 1 0-2.428h2.429Zm-11.58-4.796 1.718 1.717a1.214 1.214 0 1 1-1.717 1.717l-1.717-1.717a1.214 1.214 0 1 1 1.717-1.717Zm10.304 0a1.214 1.214 0 0 1 0 1.717l-1.717 1.717a1.214 1.214 0 1 1-1.717-1.717l1.717-1.717a1.214 1.214 0 0 1 1.717 0ZM814.5 152c.67 0 1.214.544 1.214 1.214v2.429a1.214 1.214 0 1 1-2.428 0v-2.429c0-.67.543-1.214 1.214-1.214Z"/></g></g></svg>