<?xml version="1.0" encoding="UTF-8"?>
<svg xmlns="http://www.w3.org/2000/svg" xmlns:xlink="http://www.w3.org/1999/xlink" width="40pt" height="40pt" viewBox="0 0 432 432" version="1.1">
<g id="surface1">
<rect x="0" y="0" width="432" height="432" style="fill:rgb(100%,100%,100%);fill-opacity:1;stroke:none;"/>
<path style=" stroke:none;fill-rule:nonzero;fill:rgb(19.215686%,0%,43.529412%);fill-opacity:1;" d="M 280.101562 256.898438 C 267.199219 256.898438 256.800781 267.398438 256.800781 280.300781 L 256.800781 327 C 256.800781 339.898438 267.300781 350.398438 280.101562 350.398438 C 285 350.398438 289.5 348.898438 293.199219 346.398438 L 271.398438 324.601562 L 287.898438 308.101562 L 303.398438 323.601562 L 303.398438 280.398438 C 303.5 267.300781 293 256.898438 280.101562 256.898438 Z M 280.101562 256.898438 "/>
<path style=" stroke:none;fill-rule:nonzero;fill:rgb(19.215686%,0%,43.529412%);fill-opacity:1;" d="M 151.800781 81.699219 L 128.398438 81.699219 L 128.398438 175.101562 L 151.800781 175.101562 C 164.699219 175.101562 175.199219 164.601562 175.199219 151.699219 L 175.199219 105 C 175.101562 92.199219 164.699219 81.699219 151.800781 81.699219 Z M 151.800781 81.699219 "/>
<path style=" stroke:none;fill-rule:nonzero;fill:rgb(19.215686%,0%,43.529412%);fill-opacity:1;" d="M 0 0 L 0 432 L 432 432 L 432 0 Z M 198.5 256.898438 L 163.5 256.898438 L 163.5 350.300781 L 198.5 350.300781 L 198.5 373.699219 L 105.101562 373.699219 L 105.101562 350.300781 L 140.101562 350.300781 L 140.101562 256.898438 L 105.101562 256.898438 L 105.101562 233.5 L 198.5 233.5 Z M 198.5 151.800781 C 198.5 177.601562 177.601562 198.5 151.800781 198.5 L 105.101562 198.5 L 105.101562 58.398438 L 151.800781 58.398438 C 177.601562 58.398438 198.5 79.300781 198.5 105.101562 Z M 233.5 157.601562 C 233.5 135 251.800781 116.699219 274.398438 116.699219 L 286.101562 116.699219 C 295.800781 116.699219 303.601562 108.898438 303.601562 99.199219 C 303.601562 89.5 295.800781 81.699219 286.101562 81.699219 L 233.601562 81.699219 L 233.601562 58.398438 L 286.101562 58.398438 C 308.699219 58.398438 327 76.699219 327 99.300781 C 327 121.898438 308.699219 140.199219 286.101562 140.199219 L 274.398438 140.199219 C 264.699219 140.199219 256.898438 148 256.898438 157.699219 L 256.898438 175.199219 L 326.800781 175.199219 L 326.800781 198.601562 L 233.398438 198.601562 Z M 327.5 380.5 L 309.898438 362.898438 C 301.800781 369.601562 291.398438 373.601562 280.101562 373.601562 C 254.300781 373.601562 233.398438 352.699219 233.398438 326.898438 L 233.398438 280.199219 C 233.398438 254.398438 254.300781 233.5 280.101562 233.5 C 305.898438 233.5 326.800781 254.398438 326.800781 280.199219 L 326.800781 326.898438 C 326.800781 332.800781 325.699219 338.5 323.699219 343.699219 L 344 364 Z M 327.5 380.5 "/>
</g>
</svg>
